<?xml version="1.0" encoding="utf-8"?>
<!-- Generator: Adobe Illustrator 16.0.0, SVG Export Plug-In . SVG Version: 6.00 Build 0)  -->
<!DOCTYPE svg PUBLIC "-//W3C//DTD SVG 1.1//EN" "http://www.w3.org/Graphics/SVG/1.1/DTD/svg11.dtd">
<svg version="1.1" id="Layer_1" xmlns="http://www.w3.org/2000/svg" xmlns:xlink="http://www.w3.org/1999/xlink" x="0px" y="0px"
	 width="34px" height="34.001px" viewBox="0 0 34 34.001" enable-background="new 0 0 34 34.001" xml:space="preserve">
<g>
	<circle opacity="0.2" fill="#9C3793" cx="17" cy="17.001" r="17"/>
	<path fill="#9C3793" d="M19.301,8.958c0.738,0.332,1.342,0.781,1.813,1.35c0.471,0.569,0.777,1.229,0.926,1.984
		c0.146,0.754,0.057,1.545-0.268,2.373c-0.129,0.307-0.264,0.592-0.4,0.852c-0.139,0.26-0.307,0.52-0.5,0.778
		c-0.326,0.421-0.643,0.835-0.949,1.242c-0.309,0.404-0.561,0.852-0.756,1.338c-0.178,0.391-0.266,0.811-0.266,1.266v0.633h-3.164
		v-0.609c0-0.471,0.064-0.924,0.195-1.361c0.113-0.439,0.303-0.906,0.572-1.398c0.266-0.494,0.563-0.994,0.889-1.498
		c0.129-0.177,0.254-0.373,0.375-0.584c0.121-0.21,0.232-0.43,0.33-0.656c0.098-0.229,0.182-0.512,0.254-0.852
		c0.074-0.342,0.078-0.678,0.014-1.012c-0.066-0.332-0.215-0.619-0.451-0.861c-0.236-0.244-0.596-0.391-1.082-0.439
		c-0.57-0.049-1.135,0.023-1.703,0.219s-1.111,0.512-1.631,0.949l-1.605-2.556c0.68-0.566,1.451-0.984,2.311-1.25
		c0.859-0.27,1.76-0.405,2.701-0.405C17.764,8.458,18.563,8.626,19.301,8.958z M18.498,25.056c-0.316,0.324-0.701,0.486-1.156,0.486
		c-0.471,0-0.863-0.163-1.18-0.486c-0.316-0.326-0.475-0.715-0.475-1.17c0-0.469,0.158-0.863,0.475-1.18s0.709-0.475,1.18-0.475
		c0.455,0,0.84,0.158,1.156,0.475s0.475,0.711,0.475,1.18C18.973,24.341,18.814,24.729,18.498,25.056z"/>
	<g>
		<path fill="#9C3793" d="M17,2.001c8.271,0,15,6.729,15,15s-6.729,15-15,15s-15-6.729-15-15S8.729,2.001,17,2.001 M17,0.001
			c-9.389,0-17,7.61-17,17c0,9.389,7.611,17,17,17c9.387,0,17-7.611,17-17C34,7.611,26.387,0.001,17,0.001L17,0.001z"/>
	</g>
</g>
</svg>
