<?xml version="1.0" encoding="utf-8"?>
<!-- Generator: Adobe Illustrator 16.0.0, SVG Export Plug-In . SVG Version: 6.00 Build 0)  -->
<!DOCTYPE svg PUBLIC "-//W3C//DTD SVG 1.1//EN" "http://www.w3.org/Graphics/SVG/1.1/DTD/svg11.dtd">
<svg version="1.1" id="Layer_1" xmlns="http://www.w3.org/2000/svg" xmlns:xlink="http://www.w3.org/1999/xlink" x="0px" y="0px"
	 width="150.053px" height="62.151px" viewBox="0 0 150.053 62.151" enable-background="new 0 0 150.053 62.151"
	 xml:space="preserve">
<g>
	<polygon fill="#9C3793" points="98.445,11.799 98.445,7.267 51.06,7.267 51.06,11.799 0,11.799 0,55.831 150.053,55.831 
		150.053,11.799 	"/>
	<g>
		<path fill="#9C3793" d="M96.649,5.243c1.059,0,1.081-0.197,0.051-0.438L76.898,0.181c-1.03-0.242-2.718-0.241-3.748,0l-19.8,4.625
			c-1.03,0.24-1.008,0.438,0.051,0.438H96.649z"/>
	</g>
	<g>
		<g>
			<g>
				<rect x="9.803" y="20.811" fill="#FFFFFF" width="3.861" height="8.541"/>
				<rect x="18.926" y="20.811" fill="#FFFFFF" width="3.863" height="8.541"/>
				<rect x="28.049" y="20.811" fill="#FFFFFF" width="3.861" height="8.541"/>
				<rect x="37.172" y="20.811" fill="#FFFFFF" width="3.861" height="8.541"/>
			</g>
			<g>
				<rect x="9.803" y="38.276" fill="#FFFFFF" width="3.861" height="8.542"/>
				<rect x="18.926" y="38.276" fill="#FFFFFF" width="3.863" height="8.542"/>
				<rect x="28.049" y="38.276" fill="#FFFFFF" width="3.861" height="8.542"/>
				<rect x="37.172" y="38.276" fill="#FFFFFF" width="3.861" height="8.542"/>
			</g>
		</g>
		<g>
			<g>
				<rect x="109.017" y="20.811" fill="#FFFFFF" width="3.861" height="8.541"/>
				<rect x="118.14" y="20.811" fill="#FFFFFF" width="3.862" height="8.541"/>
				<rect x="127.264" y="20.811" fill="#FFFFFF" width="3.861" height="8.541"/>
				<rect x="136.387" y="20.811" fill="#FFFFFF" width="3.863" height="8.541"/>
			</g>
			<g>
				<rect x="109.017" y="38.276" fill="#FFFFFF" width="3.861" height="8.542"/>
				<rect x="118.14" y="38.276" fill="#FFFFFF" width="3.862" height="8.542"/>
				<rect x="127.264" y="38.276" fill="#FFFFFF" width="3.861" height="8.542"/>
				<rect x="136.387" y="38.276" fill="#FFFFFF" width="3.863" height="8.542"/>
			</g>
		</g>
		<rect x="49.027" y="6.487" fill="#FFFFFF" width="2.58" height="50.045"/>
		<rect x="97.163" y="6.533" fill="#FFFFFF" width="2.581" height="50.045"/>
	</g>
	<rect x="49.298" y="58.056" fill="#9C3793" width="51.454" height="4.096"/>
	<g>
		<g>
			<rect x="59.326" y="20.811" fill="#FFFFFF" width="3.862" height="8.541"/>
			<rect x="68.45" y="20.811" fill="#FFFFFF" width="3.863" height="8.541"/>
			<rect x="77.574" y="20.811" fill="#FFFFFF" width="3.861" height="8.541"/>
			<rect x="86.696" y="20.811" fill="#FFFFFF" width="3.864" height="8.541"/>
		</g>
		<rect x="59.326" y="39.646" fill="#FFFFFF" width="3.862" height="16.456"/>
		<rect x="86.696" y="39.646" fill="#FFFFFF" width="3.864" height="16.456"/>
		<rect x="68.45" y="39.646" fill="#FFFFFF" width="3.863" height="16.456"/>
		<rect x="77.574" y="39.646" fill="#FFFFFF" width="3.861" height="16.456"/>
		<rect x="57.555" y="37.253" fill="#FFFFFF" width="34.941" height="2.394"/>
	</g>
</g>
</svg>
