<?xml version="1.0" encoding="utf-8"?>
<!-- Generator: Adobe Illustrator 16.0.0, SVG Export Plug-In . SVG Version: 6.00 Build 0)  -->
<!DOCTYPE svg PUBLIC "-//W3C//DTD SVG 1.1//EN" "http://www.w3.org/Graphics/SVG/1.1/DTD/svg11.dtd">
<svg version="1.1" id="Layer_1" xmlns="http://www.w3.org/2000/svg" xmlns:xlink="http://www.w3.org/1999/xlink" x="0px" y="0px"
	 width="150.053px" height="94.021px" viewBox="0 0 150.053 94.021" enable-background="new 0 0 150.053 94.021"
	 xml:space="preserve">
<g>
	<polygon fill="#9C3793" points="98.445,44.882 98.445,40.35 51.063,40.35 51.063,44.882 0,44.882 0,88.916 150.053,88.916 
		150.053,44.882 	"/>
	<g>
		<rect x="51.695" y="30.24" fill="#9C3793" width="2.883" height="7.537"/>
		<rect x="58.99" y="30.24" fill="#9C3793" width="2.885" height="7.537"/>
		<rect x="66.289" y="30.24" fill="#9C3793" width="2.881" height="7.537"/>
		<rect x="73.584" y="30.24" fill="#9C3793" width="2.885" height="7.537"/>
		<rect x="80.881" y="30.24" fill="#9C3793" width="2.883" height="7.537"/>
		<rect x="88.178" y="30.24" fill="#9C3793" width="2.885" height="7.537"/>
		<rect x="95.475" y="30.24" fill="#9C3793" width="2.883" height="7.537"/>
	</g>
	<g>
		<g>
			<g>
				<rect x="9.802" y="53.895" fill="#FFFFFF" width="3.863" height="8.539"/>
				<rect x="18.926" y="53.895" fill="#FFFFFF" width="3.862" height="8.539"/>
				<rect x="28.048" y="53.895" fill="#FFFFFF" width="3.864" height="8.539"/>
				<rect x="37.172" y="53.895" fill="#FFFFFF" width="3.864" height="8.539"/>
			</g>
			<g>
				<rect x="9.802" y="71.361" fill="#FFFFFF" width="3.863" height="8.541"/>
				<rect x="18.926" y="71.361" fill="#FFFFFF" width="3.862" height="8.541"/>
				<rect x="28.048" y="71.361" fill="#FFFFFF" width="3.864" height="8.541"/>
				<rect x="37.172" y="71.361" fill="#FFFFFF" width="3.864" height="8.541"/>
			</g>
		</g>
		<g>
			<g>
				<rect x="109.016" y="53.895" fill="#FFFFFF" width="3.865" height="8.539"/>
				<rect x="118.141" y="53.895" fill="#FFFFFF" width="3.863" height="8.539"/>
				<rect x="127.264" y="53.895" fill="#FFFFFF" width="3.863" height="8.539"/>
				<rect x="136.387" y="53.895" fill="#FFFFFF" width="3.863" height="8.539"/>
			</g>
			<g>
				<rect x="109.016" y="71.361" fill="#FFFFFF" width="3.865" height="8.541"/>
				<rect x="118.141" y="71.361" fill="#FFFFFF" width="3.863" height="8.541"/>
				<rect x="127.264" y="71.361" fill="#FFFFFF" width="3.863" height="8.541"/>
				<rect x="136.387" y="71.361" fill="#FFFFFF" width="3.863" height="8.541"/>
			</g>
		</g>
	</g>
	<g>
		<g>
			<rect x="48.553" y="40.074" fill="#FFFFFF" width="3.863" height="32.771"/>
			<rect x="97.637" y="40.074" fill="#FFFFFF" width="3.863" height="32.771"/>
			<rect x="59.529" y="53.895" fill="#FFFFFF" width="3.861" height="8.539"/>
			<rect x="68.572" y="53.895" fill="#FFFFFF" width="3.863" height="8.539"/>
			<rect x="77.617" y="53.895" fill="#FFFFFF" width="3.861" height="8.539"/>
			<rect x="86.662" y="53.895" fill="#FFFFFF" width="3.861" height="8.539"/>
		</g>
		<rect x="46.625" y="71.361" fill="#FFFFFF" width="56.803" height="19.79"/>
	</g>
	<g>
		<rect x="50.484" y="73.92" fill="#9C3793" width="3.596" height="16.327"/>
		<rect x="59.582" y="73.92" fill="#9C3793" width="3.596" height="16.327"/>
		<rect x="68.68" y="73.92" fill="#9C3793" width="3.596" height="16.327"/>
		<rect x="77.777" y="73.92" fill="#9C3793" width="3.596" height="16.327"/>
		<rect x="86.875" y="73.92" fill="#9C3793" width="3.596" height="16.327"/>
		<rect x="95.973" y="73.92" fill="#9C3793" width="3.596" height="16.327"/>
	</g>
	<rect x="49.3" y="92.347" fill="#9C3793" width="51.452" height="1.675"/>
	<g>
		<rect x="69.092" fill="#9C3793" width="11.861" height="15.779"/>
		<path fill="#9C3793" d="M52.129,27.227c0-12.646,10.252-22.897,22.896-22.897c12.646,0,22.898,10.251,22.898,22.897H52.129z"/>
	</g>
</g>
</svg>
