<?xml version="1.0" encoding="utf-8"?>
<!-- Generator: Adobe Illustrator 16.0.0, SVG Export Plug-In . SVG Version: 6.00 Build 0)  -->
<!DOCTYPE svg PUBLIC "-//W3C//DTD SVG 1.1//EN" "http://www.w3.org/Graphics/SVG/1.1/DTD/svg11.dtd">
<svg version="1.1" id="Layer_1" xmlns="http://www.w3.org/2000/svg" xmlns:xlink="http://www.w3.org/1999/xlink" x="0px" y="0px"
	 width="140px" height="91px" viewBox="0 0 140 91" enable-background="new 0 0 140 91" xml:space="preserve">
<g>
	<g>
		<g>
			<g>
				<g>
					<path fill="#9C3793" d="M84.865,25.401h2.172c1.178,0,1.805,0.644,2.094,1.399l1.539,3.964
						c0.605,0.078,1.684,0.792,1.684,2.146v5.039h-1.494v1.611c0,1.982-2.805,1.961-2.805,0V37.95h-5.049h-0.002h0.002h-0.002
						h-5.047v1.611c0,1.961-2.807,1.982-2.807,0V37.95h-1.496v-5.039c0-1.354,1.078-2.068,1.686-2.146l1.537-3.964
						c0.289-0.756,0.916-1.399,2.096-1.399h2.195H84.865z"/>
				</g>
			</g>
			<g>
				<g>
					<path fill="#FFFFFF" d="M83.004,30.724H83h-6.068l1.156-3.119c0.145-0.438,0.361-0.756,0.869-0.76H83h0.004h0.002h4.047
						c0.508,0.004,0.723,0.322,0.867,0.76l1.156,3.119h-6.07H83.004z"/>
				</g>
				<g>
					<g>
						<path fill="#FFFFFF" d="M76.596,34.913c-0.715,0-1.295-0.599-1.295-1.337s0.58-1.336,1.295-1.336
							c0.719,0,1.299,0.598,1.299,1.336S77.314,34.913,76.596,34.913z"/>
						<path fill="#FFFFFF" d="M76.596,33.576"/>
					</g>
					<g>
						<path fill="#FFFFFF" d="M89.41,34.913c0.719,0,1.299-0.599,1.299-1.337s-0.58-1.336-1.299-1.336
							c-0.713,0-1.295,0.598-1.295,1.336S88.697,34.913,89.41,34.913z"/>
						<path fill="#FFFFFF" d="M89.41,33.576"/>
					</g>
				</g>
			</g>
		</g>
		<g>
			<g>
				<path fill="#9C3793" d="M84.324,68.538c1.129-0.572,2.143-0.539,3.322,0.076c1.176,0.615,2.355,0.615,3.742-0.092
					c1.389-0.71,2.555-0.352,3.201-0.004c0.564,0.306,0.961,0.465,1.777,0.524V66.28c-1.037-0.025-1.689-0.4-1.689-0.4
					c-2.4-1.311-3.445,0.285-4.738,0.285v-6.389l1.994-4.588c0.301-0.709,0-1.355-0.727-1.664l-1.205-0.491V49.06h-2.328v-2.094
					h-3.258v-2.803h-2.023h-2.021v2.803h-3.258v2.094h-2.324v3.974l-1.209,0.491c-0.725,0.309-1.025,0.955-0.725,1.664l1.994,4.588
					v6.389l0,0c-1.293,0-2.389-1.572-4.74-0.262h-0.002c0,0-0.67,0.377-1.688,0.402v2.737c0.797-0.06,1.176-0.188,1.779-0.524
					c0.639-0.357,1.811-0.706,3.199,0.004c1.391,0.707,2.566,0.707,3.744,0.092s2.203-0.646,3.305-0.092
					C81.836,69.229,82.924,69.237,84.324,68.538z"/>
			</g>
		</g>
		<g>
			<polygon fill="#FFFFFF" points="82.393,48.629 78.832,48.629 78.832,50.691 76.508,50.691 76.508,52.292 82.393,49.864 
				88.279,52.292 88.279,50.691 85.955,50.691 85.955,48.629 			"/>
		</g>
		<g>
			<g>
				<path fill="#9C3793" d="M57.184,66.251h0.004h2.553l1.865,2.736h1.506l-2.609-3.913c0.869-0.14,1.738-1.047,1.738-2.153v-8.082
					c0-1.141-0.965-2.188-2.266-2.188l-2.779-0.002l0,0l-2.801,0.002c-1.303,0-2.264,1.047-2.264,2.188v8.082
					c0,1.106,0.865,2.014,1.734,2.153l-2.607,3.913h1.506l1.865-2.736h2.553H57.184z"/>
			</g>
			<g>
				<circle fill="#9C3793" cx="56.35" cy="51.789" r="0.627"/>
			</g>
			<g>
				<circle fill="#9C3793" cx="58.018" cy="51.789" r="0.627"/>
			</g>
		</g>
		<g>
			<path fill="#FFFFFF" d="M59.996,63.896c0.549,0,0.994-0.444,0.994-0.994c0-0.547-0.445-0.99-0.994-0.99
				c-0.547,0-0.99,0.443-0.99,0.99C59.006,63.451,59.449,63.896,59.996,63.896z"/>
		</g>
		<g>
			<path fill="#FFFFFF" d="M57.184,58.646h0.004h2.709c0.623,0,1.135-0.429,1.129-1.127v-1.456c0-0.604-0.391-1.132-1.129-1.132
				h-2.709h-0.006h-2.713c-0.734,0-1.127,0.527-1.127,1.132v1.456c-0.006,0.698,0.506,1.127,1.127,1.127h2.713H57.184z"/>
		</g>
		<g>
			<path fill="#FFFFFF" d="M57.184,54.495h0.004h1.094c0.209,0,0.371-0.17,0.371-0.37v-0.642c0-0.199-0.172-0.365-0.371-0.365
				h-1.094h-0.004h-0.002h-1.096c-0.199,0-0.371,0.166-0.371,0.365v0.642c0,0.2,0.164,0.37,0.371,0.37h1.096H57.184z"/>
		</g>
		<g>
			<path fill="#FFFFFF" d="M54.35,63.896c-0.551,0-0.996-0.444-0.996-0.994c0-0.547,0.445-0.99,0.996-0.99
				c0.545,0,0.99,0.443,0.99,0.99C55.34,63.451,54.895,63.896,54.35,63.896z"/>
		</g>
		<g>
			<path fill="#9C3793" d="M73.078,25.153c1.76-1.768-0.9-4.426-2.711-2.611l-7.406,7.404l-16.594-4.135l-2.734,2.736l13.711,6.92
				l-5.533,5.531l-4.252-0.52l-2.164,2.162l4.824,2.535l2.535,4.826l2.164-2.164L54.42,43.61l5.535-5.533l6.92,13.711l2.734-2.736
				l-3.984-16.443L73.078,25.153z"/>
		</g>
	</g>
	<rect fill="none" width="140" height="91"/>
</g>
</svg>
