<?xml version="1.0" encoding="utf-8"?>
<!-- Generator: Adobe Illustrator 16.0.0, SVG Export Plug-In . SVG Version: 6.00 Build 0)  -->
<!DOCTYPE svg PUBLIC "-//W3C//DTD SVG 1.1//EN" "http://www.w3.org/Graphics/SVG/1.1/DTD/svg11.dtd">
<svg version="1.1" id="Layer_1" xmlns="http://www.w3.org/2000/svg" xmlns:xlink="http://www.w3.org/1999/xlink" x="0px" y="0px"
	 width="140px" height="91px" viewBox="0 0 140 91" enable-background="new 0 0 140 91" xml:space="preserve">
<g>
	<g>
		<g>
			<path fill="#9C3793" d="M76.02,32.625c0.583,0,0.849-0.428,0.592-0.95c0,0-3.14-6.378-6.61-6.378s-6.61,6.378-6.61,6.378
				c-0.257,0.522,0.009,0.95,0.592,0.95H76.02z"/>
		</g>
		<circle fill="#9C3793" stroke="#FFFFFF" stroke-width="1.1212" stroke-miterlimit="10" cx="70" cy="22.721" r="4.438"/>
		<g>
			<path fill="#9C3793" d="M83.868,35.644c0,0.508-0.415,0.923-0.923,0.923H57.054c-0.507,0-0.922-0.415-0.922-0.923V34.7
				c0-0.508,0.415-0.923,0.922-0.923h25.891c0.508,0,0.923,0.415,0.923,0.923V35.644z"/>
		</g>
		<g>
			<g>
				<path fill="#9C3793" d="M58.246,72.715c0.697,0,1.015-0.512,0.707-1.137c0,0-3.755-7.627-7.901-7.627
					c-4.15,0-7.905,7.627-7.905,7.627c-0.308,0.625,0.01,1.137,0.707,1.137H58.246z"/>
			</g>
			<circle fill="#9C3793" stroke="#FFFFFF" stroke-width="1.3405" stroke-miterlimit="10" cx="51.051" cy="60.874" r="5.306"/>
			<g>
				<path fill="#9C3793" d="M77.195,72.715c0.696,0,1.015-0.512,0.708-1.137c0,0-3.752-7.627-7.902-7.627
					c-4.148,0-7.901,7.627-7.901,7.627c-0.308,0.625,0.011,1.137,0.707,1.137H77.195z"/>
			</g>
			<circle fill="#9C3793" stroke="#FFFFFF" stroke-width="1.3405" stroke-miterlimit="10" cx="70.002" cy="60.874" r="5.306"/>
			<g>
				<path fill="#9C3793" d="M96.146,72.715c0.696,0,1.015-0.512,0.707-1.137c0,0-3.753-7.627-7.901-7.627
					c-4.15,0-7.905,7.627-7.905,7.627c-0.308,0.625,0.011,1.137,0.707,1.137H96.146z"/>
			</g>
			<circle fill="#9C3793" stroke="#FFFFFF" stroke-width="1.3405" stroke-miterlimit="10" cx="88.951" cy="60.874" r="5.306"/>
		</g>
		<rect x="45.448" y="50.053" fill="#9C3793" width="49.102" height="2.115"/>
		<rect x="58.759" y="35.796" fill="#9C3793" width="22.48" height="15.335"/>
	</g>
	<rect fill="none" width="140" height="91"/>
</g>
</svg>
