<?xml version="1.0" encoding="utf-8"?>
<!-- Generator: Adobe Illustrator 16.0.0, SVG Export Plug-In . SVG Version: 6.00 Build 0)  -->
<!DOCTYPE svg PUBLIC "-//W3C//DTD SVG 1.1//EN" "http://www.w3.org/Graphics/SVG/1.1/DTD/svg11.dtd">
<svg version="1.1" id="Layer_1" xmlns="http://www.w3.org/2000/svg" xmlns:xlink="http://www.w3.org/1999/xlink" x="0px" y="0px"
	 width="140px" height="91px" viewBox="0 0 140 91" enable-background="new 0 0 140 91" xml:space="preserve">
<g>
	<g>
		<path fill="none" stroke="#9C3793" stroke-width="1.3738" stroke-miterlimit="10" d="M58.633,33.885
			c0,1.939-0.861,3.678-2.225,4.852c-1.121,0.965-2.58,1.549-4.176,1.549c-1.598,0-3.057-0.584-4.176-1.549
			c-1.363-1.176-2.227-2.912-2.227-4.852c0-3.535,2.865-6.402,6.402-6.402C55.768,27.482,58.633,30.35,58.633,33.885z"/>
		<path fill="none" stroke="#9C3793" stroke-width="2.4041" stroke-miterlimit="10" d="M65.156,33.885
			c0,7.137-5.787,12.924-12.924,12.924c-7.141,0-12.924-5.787-12.924-12.924c0-7.139,5.783-12.924,12.924-12.924
			C59.369,20.961,65.156,26.746,65.156,33.885z"/>
		<path fill="#FFFFFF" d="M53.832,31.045c-0.039,0-0.076,0.008-0.117,0.008c-0.996,0-1.889-0.545-2.51-1.408L34.598,70.039h35.268
			L53.832,31.045z"/>
		<g>
			<path fill="#9C3793" d="M95.782,52.961c0.644,0,0.937-0.472,0.653-1.048c0,0-3.463-7.034-7.289-7.034
				c-3.83,0-7.293,7.034-7.293,7.034c-0.283,0.576,0.01,1.048,0.653,1.048H95.782z"/>
		</g>
		<circle fill="#9C3793" stroke="#FFFFFF" stroke-width="1.2367" stroke-miterlimit="10" cx="89.146" cy="42.037" r="4.896"/>
		
			<polyline fill="none" stroke="#9C3793" stroke-width="2.1161" stroke-linecap="round" stroke-linejoin="round" stroke-miterlimit="10" points="
			63.34,62.104 52.232,35.088 41.123,62.104 		"/>
		
			<polyline fill="none" stroke="#9C3793" stroke-width="2.1161" stroke-linecap="round" stroke-linejoin="round" stroke-miterlimit="10" points="
			63.34,62.104 52.232,35.088 41.123,62.104 		"/>
		
			<polyline fill="none" stroke="#9C3793" stroke-width="2.1161" stroke-linecap="round" stroke-linejoin="round" stroke-miterlimit="10" points="
			59.471,52.691 52.232,55.979 44.994,52.691 		"/>
		
			<polyline fill="none" stroke="#9C3793" stroke-width="1.2206" stroke-linecap="round" stroke-linejoin="round" stroke-miterlimit="10" points="
			56.408,45.383 52.232,47.279 48.057,45.383 		"/>
		
			<line fill="none" stroke="#9C3793" stroke-width="1.7172" stroke-linecap="round" stroke-linejoin="round" stroke-miterlimit="10" x1="52.232" y1="36.318" x2="52.232" y2="65.08"/>
		<g>
			<circle fill="#9C3793" cx="52.232" cy="33.885" r="2.211"/>
			<path fill="#FFFFFF" d="M52.232,32.014c1.031,0,1.871,0.838,1.871,1.871s-0.84,1.871-1.871,1.871
				c-1.033,0-1.871-0.838-1.871-1.871S51.199,32.014,52.232,32.014 M52.232,31.333c-1.407,0-2.551,1.145-2.551,2.552
				s1.145,2.552,2.551,2.552s2.551-1.145,2.551-2.552S53.639,31.333,52.232,31.333L52.232,31.333z"/>
		</g>
		<path fill="none" stroke="#9C3793" stroke-width="2.0405" stroke-linejoin="round" stroke-miterlimit="10" d="M105.402,55.662
			c0,0.641-0.52,1.156-1.158,1.156H74.047c-0.641,0-1.158-0.516-1.158-1.156V34.441c0-0.641,0.518-1.158,1.158-1.158h30.197
			c0.639,0,1.158,0.518,1.158,1.158V55.662z"/>
		<rect x="85.676" y="56.818" fill="#9C3793" width="6.939" height="3.857"/>
		<path fill="#9C3793" d="M80.117,62.035v-1.564c0-0.639,0.518-1.156,1.154-1.156h15.746c0.639,0,1.156,0.518,1.156,1.156v1.564
			H80.117z"/>
	</g>
	<rect fill="none" width="140" height="91"/>
</g>
</svg>
