<?xml version="1.0" encoding="utf-8"?>
<!-- Generator: Adobe Illustrator 16.0.0, SVG Export Plug-In . SVG Version: 6.00 Build 0)  -->
<!DOCTYPE svg PUBLIC "-//W3C//DTD SVG 1.1//EN" "http://www.w3.org/Graphics/SVG/1.1/DTD/svg11.dtd">
<svg version="1.1" id="Layer_1" xmlns="http://www.w3.org/2000/svg" xmlns:xlink="http://www.w3.org/1999/xlink" x="0px" y="0px"
	 width="140px" height="91px" viewBox="0 0 140 91" enable-background="new 0 0 140 91" xml:space="preserve">
<g>
	<g>
		<g>
			<g>
				<path fill="#9C3793" d="M52.719,21.414c-2.313,0.26-10.73,4.105-10.975,23.943c-0.26,20.896,8.662,25.295,11.002,25.246V56.801
					c-1.928,0-2.316-2.096-2.756-6.424c-0.289-2.863-0.375-6.406,0-9.93c0.268-2.471,0.725-4.885,2.742-4.885L52.719,21.414z"/>
			</g>
			<g>
				<path fill="#9C3793" d="M57.711,70.629c0.895,0,1.533-0.727,1.533-1.543l0.006-0.006c0,0-0.006-10.758-0.006-10.766
					c0-0.852-0.691-1.523-1.533-1.523h-3.91v13.838c0,0,3.902,0.006,3.904,0.002L57.711,70.629z"/>
			</g>
			<g>
				<path fill="#9C3793" d="M57.711,35.563c0.895,0,1.533-0.729,1.533-1.541l0.006-0.006c0,0-0.006-11.068-0.006-11.074
					c0-0.854-0.691-1.527-1.533-1.527h-3.91v14.148c0,0,3.902,0.006,3.904,0.004L57.711,35.563z"/>
			</g>
		</g>
		<g id="path2999_1_">
			<path fill="#9C3793" d="M77.354,21.498c0.445-0.912,1.639-1.654,2.653-1.65l5.625,0.023c1.015,0.004,1.478,0.753,1.029,1.663
				l-4.984,10.111c-0.448,0.91,0.015,1.655,1.029,1.655h5.555c1.015,0,1.289,0.616,0.609,1.37L69.124,56.579
				c-0.68,0.754-0.885,0.617-0.455-0.302l6.385-13.684c0.43-0.919-0.05-1.672-1.064-1.672h-4.256c-1.015,0-1.481-0.746-1.036-1.658
				L77.354,21.498z"/>
		</g>
		<path fill="none" stroke="#9C3793" stroke-width="2.9288" stroke-linejoin="round" stroke-miterlimit="10" d="M83.123,63.592
			l7.568-15.705l7.57,15.705c0,4.18-3.391,7.568-7.57,7.568S83.123,67.771,83.123,63.592z"/>
	</g>
	<rect fill="none" width="140" height="91"/>
</g>
</svg>
