<?xml version="1.0" encoding="utf-8"?>
<!-- Generator: Adobe Illustrator 16.0.0, SVG Export Plug-In . SVG Version: 6.00 Build 0)  -->
<!DOCTYPE svg PUBLIC "-//W3C//DTD SVG 1.1//EN" "http://www.w3.org/Graphics/SVG/1.1/DTD/svg11.dtd">
<svg version="1.1" id="Layer_1" xmlns="http://www.w3.org/2000/svg" xmlns:xlink="http://www.w3.org/1999/xlink" x="0px" y="0px"
	 width="140px" height="91px" viewBox="0 0 140 91" enable-background="new 0 0 140 91" xml:space="preserve">
<g>
	<g>
		<g>
			<path fill="#9C3793" d="M94.895,34.612c0-1.522-1.156-3.23-2.569-3.795l-19.754-7.902c-1.413-0.565-3.726-0.566-5.139-0.001
				l-19.758,7.903c-1.413,0.564-2.569,2.272-2.569,3.795v31.732c0,1.522,1.245,2.768,2.768,2.768h44.254
				c1.522,0,2.768-1.245,2.768-2.768V34.612z"/>
		</g>
		
			<line fill="none" stroke="#FFFFFF" stroke-width="2.672" stroke-linecap="round" stroke-miterlimit="10" x1="51.16" y1="42.066" x2="51.16" y2="63.144"/>
		
			<line fill="none" stroke="#FFFFFF" stroke-width="2.672" stroke-linecap="round" stroke-miterlimit="10" x1="90.352" y1="48.003" x2="90.352" y2="63.144"/>
		
			<line fill="none" stroke="#FFFFFF" stroke-width="2.672" stroke-miterlimit="10" x1="51.16" y1="58.097" x2="90.352" y2="58.097"/>
		<path fill="#FFFFFF" d="M65.422,47.903h18.551c1.99,0,3.605,1.788,3.605,3.997l0.008,3.707H65.422V47.903z"/>
		<path fill="#FFFFFF" d="M61.096,49.514c0,1.665-1.352,3.018-3.016,3.018c-1.67,0-3.02-1.353-3.02-3.018
			c0-1.668,1.35-3.019,3.02-3.019C59.744,46.495,61.096,47.846,61.096,49.514z"/>
		
			<polyline fill="none" stroke="#FFFFFF" stroke-width="2.5387" stroke-linecap="round" stroke-linejoin="round" stroke-miterlimit="10" points="
			63.197,48.856 63.197,54.334 54.789,54.334 		"/>
	</g>
	<rect fill="none" width="140" height="91"/>
</g>
</svg>
