<?xml version="1.0" encoding="utf-8"?>
<!-- Generator: Adobe Illustrator 16.0.0, SVG Export Plug-In . SVG Version: 6.00 Build 0)  -->
<!DOCTYPE svg PUBLIC "-//W3C//DTD SVG 1.1//EN" "http://www.w3.org/Graphics/SVG/1.1/DTD/svg11.dtd">
<svg version="1.1" id="Layer_1" xmlns="http://www.w3.org/2000/svg" xmlns:xlink="http://www.w3.org/1999/xlink" x="0px" y="0px"
	 width="140px" height="91px" viewBox="0 0 140 91" enable-background="new 0 0 140 91" xml:space="preserve">
<g>
	<g>
		<rect x="57.189" y="50.883" fill-rule="evenodd" clip-rule="evenodd" fill="#9C3793" width="44.092" height="2.277"/>
		<rect x="61.795" y="52.402" fill-rule="evenodd" clip-rule="evenodd" fill="#9C3793" width="2.279" height="21.558"/>
		<rect x="94.396" y="52.402" fill-rule="evenodd" clip-rule="evenodd" fill="#9C3793" width="2.277" height="21.558"/>
		<rect x="61.795" y="52.022" fill-rule="evenodd" clip-rule="evenodd" fill="#9C3793" width="34.879" height="4.501"/>
		<rect x="48.398" y="42.477" fill-rule="evenodd" clip-rule="evenodd" fill="#9C3793" width="2.117" height="30.209"/>
		<rect x="44.006" y="71.41" fill-rule="evenodd" clip-rule="evenodd" fill="#9C3793" width="10.902" height="2.55"/>
		<g>
			<path fill-rule="evenodd" clip-rule="evenodd" fill="#FFFFFF" d="M59.884,43.1c0.172,1-0.517,1.818-1.531,1.818H40.563
				c-1.015,0-1.704-0.818-1.531-1.818l2.625-15.238c0.173-1,1.144-1.818,2.158-1.818h11.281c1.015,0,1.986,0.818,2.158,1.818
				L59.884,43.1z"/>
			<path fill="none" stroke="#9C3793" stroke-width="1.3017" stroke-miterlimit="10" d="M59.884,43.1
				c0.172,1-0.517,1.818-1.531,1.818H40.563c-1.015,0-1.704-0.818-1.531-1.818l2.625-15.238c0.173-1,1.144-1.818,2.158-1.818h11.281
				c1.015,0,1.986,0.818,2.158,1.818L59.884,43.1z"/>
		</g>
		<polyline fill="#FFFFFF" stroke="#9C3793" stroke-width="0.8805" stroke-linejoin="round" stroke-miterlimit="10" points="
			74.805,26.604 74.805,17.041 91.813,17.041 91.813,26.604 		"/>
		<g>
			<path fill="#9C3793" d="M100.234,40.892c0,1.17-0.957,2.127-2.127,2.127H68.842c-1.17,0-2.127-0.957-2.127-2.127V29.584
				c0-1.17,0.957-2.127,2.127-2.127h29.266c1.17,0,2.127,0.957,2.127,2.127V40.892z"/>
		</g>
		<g>
			<path fill="none" stroke="#FFFFFF" stroke-width="1.0006" stroke-miterlimit="10" d="M95.189,45.367
				c0,0.818-0.669,1.487-1.486,1.487H73.246c-0.817,0-1.486-0.669-1.486-1.487v-7.902c0-0.818,0.669-1.487,1.486-1.487h20.457
				c0.817,0,1.486,0.669,1.486,1.487V45.367z"/>
		</g>
		<path fill="#FFFFFF" d="M97.564,30.887c0,0.391-0.314,0.709-0.707,0.709h-5.086c-0.391,0-0.709-0.318-0.709-0.709v-0.834
			c0-0.391,0.318-0.708,0.709-0.708h5.086c0.393,0,0.707,0.317,0.707,0.708V30.887z"/>
	</g>
	<rect fill="none" width="140" height="91"/>
</g>
</svg>
