<?xml version="1.0" encoding="utf-8"?>
<!-- Generator: Adobe Illustrator 16.0.0, SVG Export Plug-In . SVG Version: 6.00 Build 0)  -->
<!DOCTYPE svg PUBLIC "-//W3C//DTD SVG 1.1//EN" "http://www.w3.org/Graphics/SVG/1.1/DTD/svg11.dtd">
<svg version="1.1" id="Layer_1" xmlns="http://www.w3.org/2000/svg" xmlns:xlink="http://www.w3.org/1999/xlink" x="0px" y="0px"
	 width="140px" height="91px" viewBox="0 0 140 91" enable-background="new 0 0 140 91" xml:space="preserve">
<g>
	<g>
		<circle fill="#9C3793" cx="54.994" cy="66.152" r="11.285"/>
		<circle fill="#9C3793" cx="85.005" cy="66.152" r="11.286"/>
		<g>
			<path fill="#FFFFFF" d="M59.203,20.807c0,4-3.246,7.244-7.246,7.244c-3.998,0-7.244-3.244-7.244-7.244s3.244-7.244,7.246-7.244
				C55.957,13.563,59.203,16.807,59.203,20.807z"/>
			<circle fill="#FFFFFF" stroke="#9C3793" stroke-width="0.8863" stroke-miterlimit="10" cx="51.958" cy="20.807" r="5.763"/>
			<g>
				<path fill="#9C3793" d="M51.609,22.766l0.078-1.748c-0.537-0.18-0.928-0.434-1.166-0.762c-0.244-0.326-0.352-0.715-0.334-1.168
					c0.021-0.455,0.182-0.832,0.482-1.131c0.303-0.297,0.695-0.457,1.176-0.484l0.02-0.414l0.605,0.029l-0.02,0.412
					c0.441,0.072,0.785,0.24,1.037,0.5c0.248,0.26,0.402,0.602,0.457,1.023l-1.063,0.09c-0.051-0.332-0.207-0.563-0.473-0.691
					l-0.072,1.633c0.66,0.211,1.104,0.467,1.334,0.764c0.229,0.299,0.334,0.674,0.314,1.125c-0.023,0.504-0.195,0.922-0.516,1.254
					s-0.752,0.523-1.301,0.576l-0.033,0.781l-0.605-0.025l0.033-0.76c-0.479-0.08-0.863-0.277-1.15-0.592s-0.457-0.748-0.52-1.299
					l1.098-0.068c0.035,0.225,0.109,0.42,0.223,0.586C51.334,22.564,51.463,22.688,51.609,22.766z M51.807,18.383
					c-0.168,0.047-0.305,0.139-0.406,0.268c-0.104,0.127-0.158,0.275-0.166,0.434c-0.006,0.148,0.031,0.287,0.115,0.418
					c0.084,0.133,0.215,0.238,0.393,0.324L51.807,18.383z M52.213,22.852c0.211-0.029,0.385-0.117,0.521-0.268
					c0.139-0.148,0.213-0.326,0.221-0.537c0.008-0.184-0.039-0.348-0.141-0.488c-0.107-0.139-0.283-0.252-0.527-0.334L52.213,22.852
					z"/>
			</g>
		</g>
		<path fill="none" stroke="#9C3793" stroke-width="0.9381" stroke-linecap="round" stroke-miterlimit="10" d="M58.967,17.76
			c1.982-0.717,4.125-1.107,6.355-1.107c10.336,0,18.713,8.379,18.713,18.715"/>
		<ellipse fill="#FFFFFF" cx="79.898" cy="36.105" rx="4.166" ry="4.514"/>
		<path fill="#9C3793" d="M81.824,46.021c1.512-2.158,2.367-4.58,2.613-7.027c0.002-0.021,0.006-0.045,0.01-0.068
			c-0.002,0.002-0.004,0.004-0.004,0.004c0.482-5.014-1.594-10.133-5.887-13.342l0.004-0.006l-0.779-0.547l-0.014,0.021
			c-4.492-2.924-10.027-3.129-14.564-0.934c0.004-0.021,0.006-0.043,0.012-0.063c-0.313,0.148-0.621,0.311-0.924,0.482
			c0,0.02,0,0.041,0,0.059c-1.844,1.063-3.49,2.537-4.781,4.41l0,0l-0.035-0.031c-0.063,0.094-0.133,0.174-0.186,0.271
			c-4.387,6.57-2.867,15.412,3.441,20.137l-0.008,0.014l0.371,0.262c0.006,0.004,0.01,0.006,0.014,0.01
			c0.004,0.002,0.008,0.004,0.01,0.006l0.383,0.27l0.012-0.014C68.201,54.314,77.203,52.621,81.824,46.021z M83.344,40.225
			c-0.012,0.057-0.021,0.109-0.031,0.162c-0.393,1.836-1.166,3.529-2.273,5.057v0.002l0.039,0.039c0,0-0.934,0.85-1.781,0.994
			c-0.918,0.16-2.092,0.104-3.412-0.182c-0.551-0.121-1.115-0.271-1.701-0.459c0.967-0.963,1.889-2.049,2.732-3.252
			c0.66-0.941,1.236-1.902,1.73-2.865C80.461,40.258,82.08,40.438,83.344,40.225z M66.16,41.633
			c-1.455-1.047-2.789-2.17-3.967-3.352c-0.496-0.494-0.949-0.99-1.369-1.482c0.594-1.344,1.336-2.66,2.223-3.926
			c0.602-0.857,1.25-1.664,1.932-2.41c1.383,1.709,3.248,3.461,5.463,5.059L66.16,41.633z M71.221,36.064
			c2.256,1.531,4.531,2.682,6.607,3.395c-0.469,0.898-1.004,1.783-1.605,2.641c-0.885,1.266-1.867,2.412-2.928,3.432
			c-0.607-0.227-1.229-0.484-1.859-0.779c-1.508-0.701-3.018-1.57-4.494-2.574L71.221,36.064z M81.523,30.039
			c0.963,1.535,1.613,3.223,1.93,5.018c0.254,1.438,0.25,2.854,0.047,4.271c-0.088,0.021-0.178,0.041-0.27,0.057
			c-0.854,0.15-1.955,0.088-3.186-0.18c-0.334-0.072-0.672-0.158-1.018-0.258c1.787-3.826,2.275-7.641,1.389-10.432
			C80.818,28.998,81.191,29.506,81.523,30.039z M79.531,28.533c0.396,1.109,0.543,2.416,0.438,3.885
			c-0.107,1.504-0.477,3.096-1.096,4.725c-0.199,0.52-0.422,1.037-0.664,1.549c-0.752-0.252-1.531-0.564-2.328-0.938
			c-1.4-0.65-2.801-1.457-4.17-2.387l6.346-9.064C78.705,26.865,79.201,27.611,79.531,28.533z M77.279,25.756l-6.35,9.066
			c-1.35-0.973-2.59-2.016-3.684-3.113c-0.621-0.623-1.18-1.248-1.674-1.867c0.395-0.404,0.805-0.791,1.227-1.154
			c1.32-1.139,2.689-2.031,4.064-2.646c1.344-0.604,2.623-0.908,3.801-0.916C75.65,25.121,76.527,25.334,77.279,25.756z
			 M67.207,23.684c1.795-0.316,3.604-0.285,5.377,0.094c0.605,0.131,1.197,0.303,1.775,0.51c-2.92,0.127-6.33,1.891-9.309,4.873
			c-0.211-0.291-0.408-0.58-0.59-0.869c-0.67-1.063-1.107-2.078-1.262-2.932c-0.02-0.102-0.029-0.201-0.039-0.299
			C64.428,24.398,65.783,23.936,67.207,23.684z M58.156,29.449c1.088-1.549,2.443-2.842,4.033-3.836
			c0.059-0.039,0.117-0.072,0.176-0.107c0.227,1.268,0.953,2.742,2.088,4.273c-0.74,0.797-1.443,1.666-2.104,2.607
			c-0.842,1.205-1.551,2.441-2.127,3.674c-0.375-0.482-0.717-0.965-1.016-1.439c-0.723-1.145-1.191-2.236-1.357-3.154
			c-0.131-0.732-0.066-1.35,0.174-1.818C58.07,29.582,58.111,29.514,58.156,29.449z M57.764,44.945
			c-0.965-1.537-1.611-3.225-1.928-5.018c-0.318-1.795-0.287-3.604,0.094-5.377c0.227-1.059,0.574-2.072,1.035-3.043
			c0.234,1.602,1.246,3.506,2.861,5.467c-1.441,3.494-1.787,6.906-0.98,9.465C58.455,45.967,58.09,45.469,57.764,44.945z
			 M59.738,46.441c-0.396-1.109-0.545-2.416-0.439-3.885c0.107-1.504,0.479-3.094,1.1-4.725c0.016-0.045,0.033-0.088,0.051-0.131
			c1.404,1.572,3.178,3.158,5.225,4.631l-4.449,6.35C60.572,48.119,60.074,47.369,59.738,46.441z M62.004,49.227l4.447-6.35
			c2.078,1.414,4.17,2.535,6.125,3.316c-0.035,0.029-0.068,0.061-0.105,0.092c-1.32,1.141-2.688,2.031-4.064,2.648
			c-1.346,0.602-2.623,0.91-3.801,0.916C63.627,49.854,62.756,49.643,62.004,49.227z M66.703,51.205
			c-0.615-0.131-1.217-0.307-1.803-0.518c2.68-0.111,5.775-1.605,8.568-4.158c2.414,0.852,4.563,1.15,6.156,0.813
			c-0.762,0.771-1.605,1.453-2.529,2.031c-1.533,0.963-3.225,1.611-5.018,1.928S68.475,51.586,66.703,51.205z"/>
		<g>
			<path fill="#FFFFFF" d="M54.452,70.015l0.028-3.429c-1.065-0.316-1.844-0.785-2.339-1.408c-0.493-0.624-0.737-1.379-0.728-2.261
				c0.009-0.896,0.295-1.645,0.868-2.247c0.568-0.604,1.322-0.948,2.261-1.032l0.006-0.81l1.189,0.01L55.73,59.65
				c0.866,0.111,1.553,0.411,2.063,0.905c0.508,0.492,0.831,1.148,0.963,1.967l-2.07,0.251c-0.121-0.645-0.443-1.082-0.97-1.317
				l-0.03,3.2c1.305,0.366,2.195,0.835,2.663,1.404c0.472,0.567,0.701,1.292,0.693,2.176c-0.008,0.989-0.314,1.817-0.92,2.49
				c-0.602,0.67-1.437,1.076-2.501,1.221l-0.014,1.53l-1.187-0.011l0.014-1.489c-0.942-0.125-1.704-0.483-2.29-1.077
				s-0.952-1.429-1.107-2.508l2.139-0.207c0.084,0.438,0.242,0.814,0.48,1.132C53.891,69.638,54.159,69.868,54.452,70.015z
				 M54.528,61.42c-0.322,0.107-0.582,0.291-0.776,0.552c-0.192,0.261-0.289,0.548-0.293,0.862c-0.001,0.291,0.084,0.563,0.255,0.81
				c0.171,0.251,0.435,0.454,0.788,0.607L54.528,61.42z M55.638,70.139c0.408-0.071,0.743-0.26,1-0.56
				c0.259-0.301,0.391-0.655,0.396-1.063c0.002-0.368-0.103-0.681-0.313-0.949c-0.214-0.266-0.568-0.472-1.056-0.619L55.638,70.139z
				"/>
		</g>
		<g id="path4_2_">
			<path fill="#FFFFFF" d="M85.242,62.93c-0.13,0.139-0.343,0.139-0.473,0.001c0,0-1.326-1.407-2.498-1.407
				c-1.658,0-2.928,1.268-2.928,2.926c0,3.223,5.385,7.217,5.385,7.217c0.152,0.112,0.402,0.112,0.555,0
				c0,0,5.387-3.994,5.387-7.217c0-1.658-1.271-2.926-2.932-2.926C86.566,61.523,85.242,62.93,85.242,62.93z"/>
		</g>
	</g>
	<rect fill="none" width="140" height="91"/>
</g>
</svg>
