<?xml version="1.0" encoding="utf-8"?>
<!-- Generator: Adobe Illustrator 16.0.0, SVG Export Plug-In . SVG Version: 6.00 Build 0)  -->
<!DOCTYPE svg PUBLIC "-//W3C//DTD SVG 1.1//EN" "http://www.w3.org/Graphics/SVG/1.1/DTD/svg11.dtd">
<svg version="1.1" id="Layer_1" xmlns="http://www.w3.org/2000/svg" xmlns:xlink="http://www.w3.org/1999/xlink" x="0px" y="0px"
	 width="140px" height="91px" viewBox="0 0 140 91" enable-background="new 0 0 140 91" xml:space="preserve">
<g>
	<g>
		<g>
			<polygon fill="#9C3793" points="53.674,31.484 48.637,31.484 48.637,26.535 43.229,26.535 43.229,31.484 38.189,31.484 
				38.189,36.895 43.229,36.895 43.229,42.02 48.637,42.02 48.637,36.895 53.674,36.895 			"/>
		</g>
		
			<line fill-rule="evenodd" clip-rule="evenodd" fill="none" stroke="#9C3793" stroke-width="2.2012" stroke-linecap="round" stroke-linejoin="round" stroke-miterlimit="10" x1="83.674" y1="22.061" x2="76.996" y2="22.061"/>
		
			<path fill-rule="evenodd" clip-rule="evenodd" fill="none" stroke="#9C3793" stroke-width="2.2012" stroke-linecap="round" stroke-linejoin="round" stroke-miterlimit="10" d="
			M83.674,22.094v11.855v-0.033c0,6.947-5.631,12.58-12.58,12.58s-12.578-5.633-12.578-12.58V22.061h6.678"/>
		
			<path fill-rule="evenodd" clip-rule="evenodd" fill="none" stroke="#9C3793" stroke-width="2.2012" stroke-linecap="round" stroke-linejoin="round" stroke-miterlimit="10" d="
			M71.094,46.529v11.855v-0.033c0,6.947-5.631,12.58-12.58,12.58s-12.582-5.633-12.582-12.58v-6.303"/>
		<g>
			<path fill="#FFFFFF" d="M45.932,57.072c-2.454,0-4.451-1.997-4.451-4.451c0-2.456,1.997-4.455,4.451-4.455
				c2.457,0,4.455,1.999,4.455,4.455C50.387,55.075,48.388,57.072,45.932,57.072z"/>
			<path fill="#9C3793" d="M45.932,49.139c1.924,0,3.482,1.561,3.482,3.482c0,1.92-1.559,3.479-3.482,3.479
				c-1.922,0-3.479-1.559-3.479-3.479C42.453,50.699,44.01,49.139,45.932,49.139 M45.932,47.193c-2.991,0-5.423,2.435-5.423,5.428
				c0,2.99,2.433,5.424,5.423,5.424c2.993,0,5.427-2.434,5.427-5.424C51.359,49.628,48.924,47.193,45.932,47.193L45.932,47.193z"/>
		</g>
		<circle fill="#9C3793" cx="64.67" cy="22.053" r="2.191"/>
		<circle fill="#9C3793" cx="76.995" cy="22.053" r="2.192"/>
		<path fill="#9C3793" d="M100.01,48.123c2.402,2.4,2.402,6.295,0,8.695L87.49,69.34c-2.4,2.402-6.293,2.402-8.693,0l0,0
			c-2.402-2.4-2.402-6.295,0-8.695l12.52-12.521C93.717,45.723,97.609,45.723,100.01,48.123L100.01,48.123z"/>
		<path fill="#FFFFFF" d="M86.535,55.861l-6.26,6.26c-1.582,1.584-1.582,4.158,0,5.738c1.582,1.584,4.156,1.584,5.736,0l6.262-6.26
			L86.535,55.861z"/>
	</g>
	<rect fill="none" width="140" height="91"/>
</g>
</svg>
