<?xml version="1.0" encoding="utf-8"?>
<!-- Generator: Adobe Illustrator 16.0.0, SVG Export Plug-In . SVG Version: 6.00 Build 0)  -->
<!DOCTYPE svg PUBLIC "-//W3C//DTD SVG 1.1//EN" "http://www.w3.org/Graphics/SVG/1.1/DTD/svg11.dtd">
<svg version="1.1" id="Layer_1" xmlns="http://www.w3.org/2000/svg" xmlns:xlink="http://www.w3.org/1999/xlink" x="0px" y="0px"
	 width="140px" height="91px" viewBox="0 0 140 91" enable-background="new 0 0 140 91" xml:space="preserve">
<g>
	<g>
		<path fill="#9C3793" stroke="#FFFFFF" stroke-width="0.7815" stroke-miterlimit="10" d="M91.484,31.678
			c-0.42-0.021-0.857-0.319-1.049-0.692c-0.059-0.118-0.111-0.244-0.168-0.363c-0.314-0.684-0.646-1.357-0.998-2.023
			c-0.42-0.805-0.873-1.592-1.404-2.329c-0.521-0.729-1.09-1.425-1.666-2.11c-0.201-0.232-0.402-0.465-0.605-0.695
			c-0.096-0.111-0.207-0.219-0.291-0.342c-0.219-0.338-0.279-0.787-0.15-1.169c0.086-0.262,0.037-0.571-0.072-0.816
			c-0.359-0.812-1.381-1.13-2.137-0.673c-0.295,0.178-0.543,0.463-0.615,0.804c-0.074,0.347-0.164,0.634-0.438,0.882
			c-0.236,0.217-0.578,0.309-0.873,0.426c-0.572,0.228-1.141,0.465-1.705,0.708c-1.623,0.696-3.234,1.442-4.762,2.334
			s-2.906,2.011-4.232,3.176c-1.029,0.906-2.029,1.845-2.998,2.815c-0.295,0.295-0.559,0.549-1.01,0.596
			c-0.275,0.029-0.51-0.093-0.779-0.1c-0.412-0.014-0.805,0.188-1.074,0.493c-0.564,0.646-0.471,1.736,0.281,2.202
			c0.201,0.123,0.414,0.178,0.645,0.189c0.416,0.021,0.855,0.307,1.027,0.689c0.598,1.226,1.168,2.464,1.879,3.633
			c0.836,1.377,1.895,2.625,2.961,3.828c0.119,0.135,0.24,0.258,0.316,0.421c0.156,0.34,0.148,0.696,0.021,1.041
			c-0.256,0.704,0.203,1.469,0.879,1.718c0.744,0.275,1.695-0.109,1.895-0.916c0.02-0.067,0.023-0.133,0.031-0.203
			c0.02-0.223,0.121-0.437,0.256-0.611c0.141-0.182,0.32-0.31,0.533-0.391c1.043-0.398,2.076-0.831,3.098-1.285
			c1.625-0.721,3.252-1.492,4.746-2.462c1.49-0.966,2.85-2.139,4.162-3.329c0.826-0.746,1.637-1.51,2.418-2.301
			c0.313-0.313,0.809-0.459,1.24-0.324c0.441,0.138,0.904,0.013,1.25-0.289c0.473-0.41,0.639-1.091,0.412-1.67
			C92.346,32.118,91.955,31.722,91.484,31.678z"/>
		<path fill="#9C3793" d="M63.813,61.181l-3.316-27.37c-0.156-1.289-1.262-2.757-2.459-3.264l-6.436-2.723
			c-0.078-1.906-2.217-3.437-4.852-3.437c-2.633,0-4.773,1.53-4.85,3.437l-6.438,2.723c-1.195,0.507-2.301,1.975-2.459,3.264
			l-3.316,27.37c-0.156,1.29,0.777,2.344,2.074,2.344s2.512-1.051,2.695-2.336l1.965-13.646c0.186-1.285,0.535-1.293,0.779-0.018
			l0.363,1.886c0.244,1.274,0.258,3.364,0.033,4.643l-1.818,10.34c-0.225,1.278,0.588,2.689,1.807,3.136l6.949,2.541
			c1.219,0.445,2.215-0.252,2.215-1.55c0,1.298,0.998,1.995,2.217,1.55l6.947-2.541c1.219-0.446,2.031-1.857,1.807-3.136
			l-1.818-10.34c-0.225-1.278-0.209-3.368,0.035-4.643l0.361-1.886c0.244-1.275,0.594-1.268,0.781,0.018l1.965,13.646
			c0.184,1.285,1.396,2.336,2.691,2.336C63.037,63.524,63.971,62.471,63.813,61.181z M50.08,29.128L47.189,42.14
			c-0.242,1.086-0.629,1.086-0.859-0.004l-2.908-13.66c0-1.34,1.488-2.426,3.328-2.426c1.842,0,3.33,1.086,3.33,2.426V29.128z"/>
		
			<line fill="none" stroke="#FFFFFF" stroke-width="1.1102" stroke-miterlimit="10" x1="46.75" y1="33.331" x2="46.75" y2="74.039"/>
		<circle fill="#FFFFFF" cx="50.98" cy="52.702" r="0.879"/>
		<circle fill="#FFFFFF" cx="50.98" cy="57.347" r="0.879"/>
		<circle fill="#FFFFFF" cx="50.98" cy="61.99" r="0.879"/>
		<path fill="#FFFFFF" stroke="#9C3793" stroke-width="0.7815" stroke-miterlimit="10" d="M97.389,30.775
			c-0.369-0.203-0.637-0.661-0.646-1.081c-0.002-0.133,0.006-0.267,0.006-0.4c0.01-0.752,0.004-1.504-0.021-2.256
			c-0.033-0.908-0.102-1.813-0.258-2.707c-0.158-0.884-0.365-1.758-0.592-2.625c-0.078-0.297-0.158-0.594-0.242-0.889
			c-0.041-0.141-0.096-0.287-0.113-0.434c-0.055-0.399,0.09-0.831,0.367-1.119c0.195-0.199,0.283-0.498,0.291-0.768
			c0.025-0.885-0.756-1.615-1.639-1.531c-0.338,0.031-0.686,0.183-0.9,0.458c-0.215,0.28-0.422,0.501-0.775,0.608
			c-0.307,0.091-0.656,0.024-0.973,0.004c-0.615-0.043-1.229-0.078-1.842-0.104c-1.766-0.072-3.541-0.098-5.303,0.045
			c-1.764,0.143-3.492,0.555-5.191,1.031c-1.32,0.371-2.627,0.783-3.924,1.238c-0.391,0.137-0.738,0.255-1.166,0.103
			c-0.26-0.095-0.42-0.306-0.658-0.43c-0.365-0.188-0.811-0.179-1.182-0.02c-0.787,0.337-1.176,1.361-0.699,2.106
			c0.125,0.197,0.297,0.34,0.5,0.449c0.363,0.199,0.635,0.647,0.627,1.065c0.006,1.366-0.016,2.727,0.119,4.087
			c0.156,1.605,0.574,3.189,1.014,4.736c0.047,0.172,0.102,0.334,0.1,0.517c-0.004,0.374-0.166,0.69-0.432,0.946
			c-0.535,0.523-0.449,1.413,0.051,1.93c0.551,0.57,1.576,0.633,2.105-0.004c0.043-0.055,0.08-0.112,0.113-0.172
			c0.117-0.191,0.299-0.342,0.496-0.439c0.207-0.104,0.424-0.142,0.65-0.123c1.113,0.094,2.232,0.152,3.35,0.185
			c1.777,0.053,3.574,0.063,5.342-0.165c1.762-0.226,3.494-0.694,5.195-1.197c1.066-0.316,2.127-0.654,3.178-1.027
			c0.412-0.148,0.928-0.066,1.256,0.242c0.336,0.316,0.809,0.403,1.254,0.281c0.6-0.165,1.047-0.704,1.092-1.327
			C97.973,31.541,97.795,31.016,97.389,30.775z"/>
		<path fill="none" stroke="#9C3793" stroke-width="0.8882" stroke-linecap="round" stroke-miterlimit="10" d="M93.359,30.481
			c1.266-1.613,0.443-8.645-1.201-9.935"/>
		<g>
			<path fill="#9C3793" d="M73.73,66.75c-0.535,0.379-1.252,0.284-1.605-0.213l-1.037-1.464c-0.354-0.497-0.205-1.207,0.328-1.584
				l0,0c0.533-0.381,1.25-0.284,1.604,0.211l1.037,1.465C74.41,65.663,74.262,66.371,73.73,66.75L73.73,66.75z"/>
			<path fill="none" stroke="#9C3793" stroke-width="1.2083" stroke-miterlimit="10" d="M104.299,55.679
				c-5.461,3.539-12.166,2.889-14.98-1.451c-1.207-1.863-1.5-4.104-1.01-6.333c0.652-2.966,2.691-5.913,5.807-7.933
				c5.461-3.537,12.168-2.887,14.979,1.454C111.904,45.755,109.76,52.142,104.299,55.679z"/>
			<g>
				<path fill="none" stroke="#9C3793" stroke-width="1.2083" stroke-miterlimit="10" d="M88.352,47.821
					c-0.035,0.085-0.797,4.655-5.15,9.096"/>
				<path fill="none" stroke="#9C3793" stroke-width="1.2083" stroke-miterlimit="10" d="M94.771,57.728
					c-0.092-0.002-4.576-1.174-10.406,0.982"/>
			</g>
			
				<rect x="76.678" y="54.706" transform="matrix(0.5439 0.8392 -0.8392 0.5439 87.213 -37.7707)" fill="#9C3793" width="3.347" height="13.271"/>
			<circle fill="#FFFFFF" cx="83.986" cy="57.682" r="0.502"/>
			<path fill="#9C3793" d="M86.783,50.314l0.164,0.254l0.541-0.351c-0.004-0.119-0.004-0.237-0.004-0.355L86.783,50.314z"/>
			<path fill="#9C3793" d="M107.02,50.528c0.102-0.164,0.193-0.33,0.283-0.498l-1.107,0.717l-0.98-1.512l1.471-0.95l0.842,1.3
				c0.047-0.096,0.09-0.189,0.131-0.285l-0.752-1.158l1.367-0.887c0.035-0.197,0.063-0.393,0.08-0.589l-0.879-1.354l0.807-0.521
				c-0.018-0.095-0.037-0.187-0.059-0.279l-0.891,0.579l-0.979-1.512l1.207-0.782c-0.045-0.077-0.09-0.151-0.137-0.226l-1.215,0.786
				l-0.98-1.513l1.002-0.646c-0.07-0.061-0.141-0.119-0.213-0.177l-0.932,0.603l-0.977-1.51l0.125-0.084
				c-0.205-0.077-0.416-0.147-0.631-0.208l0.137,0.213l-1.467,0.952l-0.963-1.485c-0.184,0-0.371,0-0.557,0.009l-1.297,0.84
				l-0.398-0.619c-0.092,0.02-0.184,0.04-0.273,0.063l0.453,0.699l-1.473,0.953l-0.707-1.094c-0.082,0.033-0.164,0.066-0.248,0.104
				l0.734,1.133l-1.469,0.953l-0.82-1.265c-0.068,0.042-0.139,0.083-0.205,0.128c-0.008,0.003-0.012,0.008-0.018,0.011l0.822,1.269
				l-1.471,0.952l-0.754-1.16c-0.066,0.059-0.131,0.116-0.199,0.179l0.732,1.126l-1.473,0.952l-0.496-0.766
				c-0.059,0.071-0.115,0.146-0.168,0.221l0.443,0.688l-1.469,0.952l-0.004-0.008c-0.08,0.155-0.152,0.311-0.221,0.467l0.145-0.094
				l0.98,1.511l-1.469,0.952l-0.271-0.414c-0.023,0.127-0.045,0.256-0.063,0.385l0.111,0.174l-0.143,0.094
				c-0.012,0.111-0.021,0.223-0.027,0.331l0.314-0.204l0.979,1.513l-1.121,0.726c0.027,0.088,0.049,0.179,0.076,0.266l1.188-0.771
				l0.98,1.513l-1.4,0.908c0.049,0.072,0.098,0.146,0.15,0.216l1.395-0.902L93.582,54l-1.08,0.698
				c0.076,0.057,0.152,0.113,0.23,0.165l0.99-0.642l0.98,1.512l-0.057,0.039c0.156,0.047,0.32,0.092,0.48,0.131l-0.059-0.091
				l1.469-0.954l0.83,1.279c0.102-0.002,0.203-0.004,0.309-0.009l-0.918-1.414l1.471-0.952l0.98,1.512l-1.295,0.838
				c0.189-0.014,0.379-0.029,0.57-0.054l0.867-0.563l0.234,0.361c0.092-0.021,0.182-0.041,0.273-0.064l-0.285-0.44l1.469-0.952
				l0.52,0.802c0.082-0.035,0.162-0.071,0.244-0.109l-0.541-0.834l1.467-0.954l0.613,0.944c0.006-0.006,0.014-0.008,0.018-0.012
				c0.066-0.045,0.135-0.09,0.199-0.137l-0.607-0.938l1.471-0.955l0.523,0.809c0.064-0.061,0.131-0.122,0.197-0.184l-0.5-0.769
				l1.471-0.952l0.244,0.374c0.057-0.074,0.109-0.148,0.166-0.224l-0.188-0.293L107.02,50.528z M92.123,47.563l-0.977-1.513
				l1.467-0.952l0.98,1.512L92.123,47.563z M93.818,46.468l-0.982-1.514l1.473-0.951l0.977,1.512L93.818,46.468z M95.506,45.37
				l-0.979-1.512l1.471-0.951l0.98,1.512L95.506,45.37z M97.197,44.275l-0.979-1.513l1.471-0.951l0.98,1.511L97.197,44.275z
				 M98.889,43.179l-0.977-1.512l1.467-0.952l0.98,1.513L98.889,43.179z M100.58,42.083l-0.979-1.512l1.469-0.953l0.98,1.513
				L100.58,42.083z M91.557,50.392l-0.98-1.512l1.471-0.954l0.979,1.513L91.557,50.392z M93.246,49.295l-0.979-1.512l1.471-0.952
				l0.979,1.511L93.246,49.295z M94.939,48.199l-0.98-1.511l1.471-0.953l0.98,1.512L94.939,48.199z M96.629,47.104l-0.979-1.511
				l1.471-0.953l0.979,1.512L96.629,47.104z M98.322,46.007l-0.979-1.51l1.469-0.953l0.979,1.512L98.322,46.007z M100.01,44.913
				l-0.977-1.514l1.471-0.953l0.979,1.512L100.01,44.913z M101.705,43.815l-0.98-1.51l1.471-0.954l0.977,1.513L101.705,43.815z
				 M103.396,42.72l-0.982-1.512l1.473-0.952l0.98,1.513L103.396,42.72z M92.68,52.124l-0.98-1.512l1.473-0.952l0.979,1.511
				L92.68,52.124z M94.369,51.028l-0.979-1.511l1.471-0.954l0.979,1.513L94.369,51.028z M96.061,49.934l-0.979-1.513l1.469-0.953
				l0.982,1.512L96.061,49.934z M97.754,48.837l-0.982-1.511l1.471-0.954l0.98,1.512L97.754,48.837z M99.443,47.74l-0.979-1.512
				l1.471-0.951l0.979,1.511L99.443,47.74z M101.135,46.645l-0.979-1.512l1.469-0.952l0.979,1.512L101.135,46.645z M102.826,45.549
				l-0.979-1.511l1.469-0.953l0.98,1.514L102.826,45.549z M104.52,44.453l-0.98-1.511l1.469-0.953l0.98,1.512L104.52,44.453z
				 M93.803,53.856l-0.982-1.511l1.473-0.952l0.979,1.512L93.803,53.856z M95.492,52.762l-0.98-1.513l1.473-0.951l0.979,1.512
				L95.492,52.762z M97.184,51.667l-0.979-1.512l1.471-0.954l0.977,1.512L97.184,51.667z M98.875,50.57l-0.979-1.513l1.469-0.952
				l0.98,1.512L98.875,50.57z M100.566,49.474l-0.979-1.512l1.469-0.952l0.98,1.512L100.566,49.474z M102.26,48.378l-0.982-1.512
				l1.473-0.952l0.979,1.511L102.26,48.378z M103.949,47.282l-0.979-1.512l1.469-0.952l0.98,1.512L103.949,47.282z M105.641,46.187
				l-0.98-1.512l1.471-0.953l0.98,1.511L105.641,46.187z M94.924,55.591l-0.979-1.512l1.469-0.951l0.982,1.51L94.924,55.591z
				 M96.615,54.494l-0.98-1.512l1.471-0.952l0.98,1.512L96.615,54.494z M98.307,53.399l-0.979-1.512l1.471-0.955l0.979,1.514
				L98.307,53.399z M100,52.302l-0.98-1.51l1.469-0.953l0.982,1.512L100,52.302z M101.689,51.206l-0.979-1.512l1.469-0.951
				l0.98,1.512L101.689,51.206z M103.381,50.11l-0.979-1.512l1.469-0.951l0.98,1.511L103.381,50.11z M105.072,49.016l-0.979-1.513
				l1.469-0.953l0.98,1.514L105.072,49.016z M106.764,47.92l-0.98-1.513l1.471-0.951l0.979,1.511L106.764,47.92z M99.432,55.131
				l-0.98-1.511l1.471-0.953l0.979,1.513L99.432,55.131z M101.121,54.037l-0.979-1.514l1.469-0.95l0.98,1.51L101.121,54.037z
				 M102.813,52.939l-0.979-1.511l1.469-0.951l0.98,1.51L102.813,52.939z M104.504,51.845l-0.979-1.512l1.469-0.954l0.98,1.513
				L104.504,51.845z"/>
			<g>
				<circle fill="#9C3793" cx="88.96" cy="64.848" r="3.541"/>
				<g>
					<path fill="none" stroke="#FFFFFF" stroke-width="0.3021" stroke-miterlimit="10" d="M87.396,61.212
						c0.406,0.959,0.541,2.159,0.313,3.407c-0.23,1.263-0.789,2.347-1.52,3.103"/>
					<path fill="none" stroke="#FFFFFF" stroke-width="0.3021" stroke-miterlimit="10" d="M90.582,68.616
						c-0.451-0.979-0.609-2.233-0.373-3.54c0.24-1.302,0.828-2.415,1.594-3.171"/>
				</g>
			</g>
		</g>
	</g>
	<rect fill="none" width="140" height="91"/>
</g>
</svg>
