<?xml version="1.0" encoding="utf-8"?>
<!-- Generator: Adobe Illustrator 16.0.0, SVG Export Plug-In . SVG Version: 6.00 Build 0)  -->
<!DOCTYPE svg PUBLIC "-//W3C//DTD SVG 1.1//EN" "http://www.w3.org/Graphics/SVG/1.1/DTD/svg11.dtd">
<svg version="1.1" id="Layer_1" xmlns="http://www.w3.org/2000/svg" xmlns:xlink="http://www.w3.org/1999/xlink" x="0px" y="0px"
	 width="140px" height="91px" viewBox="0 0 140 91" enable-background="new 0 0 140 91" xml:space="preserve">
<g>
	<g>
		<path fill="#9C3793" d="M92.453,44.885c-6.002-6.325-15.238-7.302-20.631-2.186c-5.393,5.119-4.895,14.395,1.109,20.719
			c4.053,4.267,9.572,6.096,14.391,5.266c0.072-0.014,0.146-0.028,0.225-0.041c0.043-0.008,0.084-0.015,0.125-0.021
			c0.01-0.003,0.018-0.005,0.023-0.006c0.111-0.022,0.219-0.048,0.328-0.073c2.236-0.612,2.381-3.099,2.318-4.255
			c-0.104-1.162-0.299-2.319-0.547-3.449c-0.094-0.418-0.27-0.852-0.316-1.272c-0.082-0.755,0.299-1.501,0.961-1.874
			c0.643-0.363,1.465-0.316,2.063,0.119c0.578,0.422,0.697,0.974,0.799,1.633c0.068,0.465,0.236,0.861,0.469,1.197
			c0.004,0.008,1.938,2.65,3.061-0.563c0,0,0-0.003,0.002-0.005C98.16,55.19,96.66,49.314,92.453,44.885z M70.451,49.779
			c0.09-1.212,1.146-2.121,2.359-2.029c1.211,0.091,2.121,1.147,2.029,2.359c-0.092,1.213-1.146,2.121-2.359,2.029
			S70.359,50.992,70.451,49.779z M74.105,59.876c-1.211-0.091-2.121-1.146-2.029-2.359c0.092-1.212,1.146-2.12,2.359-2.03
			c1.211,0.092,2.121,1.147,2.031,2.36C76.373,59.059,75.318,59.967,74.105,59.876z M78.174,46.459
			c-1.209-0.092-2.119-1.146-2.029-2.36c0.092-1.212,1.148-2.121,2.359-2.028c1.213,0.09,2.121,1.146,2.031,2.359
			C80.443,45.641,79.387,46.549,78.174,46.459z M86.334,47.652c-1.213-0.092-2.123-1.147-2.033-2.359
			c0.094-1.213,1.15-2.121,2.361-2.029c1.211,0.09,2.121,1.146,2.027,2.358C88.602,46.834,87.543,47.743,86.334,47.652z"/>
		<path fill="#9C3793" d="M98.627,36.319c-1.033-1.432-3.035-1.755-4.467-0.723c-1.434,1.033-1.756,3.033-0.723,4.468l15.023,19.241
			c0.633,0.878,1.855,1.077,2.734,0.442c0.877-0.632,1.076-1.857,0.443-2.735L98.627,36.319z"/>
		<g>
			<path fill="#9C3793" d="M92.813,37.774c-1.366,0-2.451-0.619-2.496-0.646c-1.165-0.675-2.262-2.241-2.497-3.564l-1.039-5.84
				c-0.14-0.789,0.073-1.245,0.277-1.487c0.226-0.27,0.559-0.418,0.938-0.418c0.316,0,0.658,0.099,1.019,0.294l5.217,2.828
				c1.183,0.642,2.323,2.176,2.595,3.493c0.025,0.12,0.588,2.979-1.642,4.587C94.492,37.521,93.694,37.774,92.813,37.774z"/>
			<path fill="#FFFFFF" d="M87.996,26.299c0.227,0,0.494,0.076,0.79,0.236l5.217,2.828c1.052,0.57,2.111,1.996,2.354,3.168
				c0,0,0.55,2.657-1.452,4.101c-0.692,0.499-1.427,0.663-2.091,0.663c-1.253,0-2.256-0.581-2.256-0.581
				c-1.036-0.601-2.056-2.056-2.265-3.233l-1.039-5.84C87.104,26.795,87.418,26.299,87.996,26.299 M87.996,25.339L87.996,25.339
				c-0.523,0-0.986,0.21-1.306,0.59c-0.27,0.321-0.554,0.908-0.382,1.88l1.039,5.84c0.257,1.446,1.455,3.158,2.729,3.896
				c0.126,0.072,1.269,0.71,2.737,0.71c0.983,0,1.876-0.284,2.652-0.845c2.478-1.787,1.858-4.939,1.831-5.073
				c-0.298-1.439-1.544-3.116-2.836-3.817l-5.218-2.828C88.813,25.457,88.393,25.339,87.996,25.339L87.996,25.339z"/>
		</g>
		<path fill="#9C3793" d="M64.055,33.961c0.381,1.555-1.102,3.251-3.311,3.793c-2.205,0.543-4.307-0.276-4.688-1.828
			s1.1-3.252,3.309-3.793C61.574,31.591,63.672,32.409,64.055,33.961z"/>
		
			<line fill="none" stroke="#9C3793" stroke-width="1.1413" stroke-miterlimit="10" x1="63.527" y1="34.473" x2="63.527" y2="23.508"/>
		
			<ellipse transform="matrix(0.9711 -0.2385 0.2385 0.9711 -5.6934 18.0605)" fill="#9C3793" cx="71.781" cy="32.556" rx="4.117" ry="2.894"/>
		
			<line fill="none" stroke="#9C3793" stroke-width="1.1413" stroke-miterlimit="10" x1="75.266" y1="32.189" x2="75.266" y2="21.088"/>
		<rect x="31.709" y="48.701" fill="#9C3793" width="2.469" height="17.09"/>
		<rect x="37.879" y="48.701" fill="#9C3793" width="2.467" height="17.09"/>
		<rect x="44.049" y="48.701" fill="#9C3793" width="2.467" height="17.09"/>
		<rect x="50.219" y="48.701" fill="#9C3793" width="2.469" height="17.09"/>
		<rect x="56.387" y="48.701" fill="#9C3793" width="2.469" height="17.09"/>
		<g>
			<path fill="#9C3793" d="M58.063,47.171c0.767,0,0.86-0.329,0.208-0.731l-11.857-7.32c-0.652-0.403-1.719-0.403-2.371,0
				l-11.855,7.32c-0.652,0.402-0.559,0.731,0.208,0.731H58.063z"/>
		</g>
		<path fill="#9C3793" d="M27.992,69.912v-1.169c0-0.922,0.754-1.676,1.676-1.676h31.23c0.92,0,1.672,0.754,1.672,1.676v1.169
			H27.992z"/>
	</g>
	<rect fill="none" width="140" height="91"/>
</g>
</svg>
