<?xml version="1.0" encoding="utf-8"?>
<!-- Generator: Adobe Illustrator 16.0.0, SVG Export Plug-In . SVG Version: 6.00 Build 0)  -->
<!DOCTYPE svg PUBLIC "-//W3C//DTD SVG 1.1//EN" "http://www.w3.org/Graphics/SVG/1.1/DTD/svg11.dtd">
<svg version="1.1" id="Layer_1" xmlns="http://www.w3.org/2000/svg" xmlns:xlink="http://www.w3.org/1999/xlink" x="0px" y="0px"
	 width="140px" height="91px" viewBox="0 0 140 91" enable-background="new 0 0 140 91" xml:space="preserve">
<g>
	<g>
		<g>
			<path fill="#9C3793" d="M75.947,60.731c0,1.724-1.41,3.134-3.134,3.134H60.654c-1.723,0-3.133-1.41-3.133-3.134V28.427
				c0-1.724,1.41-3.134,3.133-3.134h12.159c1.724,0,3.134,1.41,3.134,3.134V60.731z"/>
		</g>
		<rect x="52.737" y="60.528" fill="#9C3793" width="27.991" height="5.179"/>
		<g>
			<path fill="#FFFFFF" d="M73.012,35.653c0,0.652-0.534,1.187-1.187,1.187H61.641c-0.652,0-1.186-0.534-1.186-1.187v-5.734
				c0-0.652,0.533-1.187,1.186-1.187h10.185c0.652,0,1.187,0.534,1.187,1.187V35.653z"/>
		</g>
		<path fill="none" stroke="#9C3793" stroke-width="1.7055" stroke-linecap="round" stroke-miterlimit="10" d="M93.115,26.971
			l-6.105,2.156c-1.566,0.553-2.848,2.365-2.848,4.027v2.816c0,1.664,0,4.383,0,6.044v11.533"/>
		<path fill="none" stroke="#9C3793" stroke-width="0.9087" stroke-miterlimit="10" d="M83.914,37.071c0,0,0.908-0.306,2.02-0.679
			c1.113-0.372,2.02-1.836,2.018-3.254l-0.008-4.23"/>
		<path fill="none" stroke="#9C3793" stroke-width="1.7055" stroke-miterlimit="10" d="M76.789,39.559
			c1.359,0,2.459,1.1,2.459,2.456v11.533c0,1.356,1.1,2.457,2.457,2.457s2.457-1.101,2.457-2.457"/>
		<g>
			<path fill="#9C3793" d="M94.934,35.412c-1.105,0-2.09-0.807-2.303-1.891c-0.117-0.594,0.152-0.975,0.402-1.49
				c0.336-0.703,0.676-1.406,1.016-2.111c0.168-0.345,0.398-1.188,0.885-1.188s0.715,0.843,0.885,1.188
				c0.338,0.705,0.678,1.408,1.016,2.111c0.25,0.516,0.52,0.896,0.4,1.49C97.021,34.605,96.039,35.412,94.934,35.412z"/>
		</g>
	</g>
	<rect fill="none" width="140" height="91"/>
</g>
</svg>
