<?xml version="1.0" encoding="utf-8"?>
<!-- Generator: Adobe Illustrator 16.0.0, SVG Export Plug-In . SVG Version: 6.00 Build 0)  -->
<!DOCTYPE svg PUBLIC "-//W3C//DTD SVG 1.1//EN" "http://www.w3.org/Graphics/SVG/1.1/DTD/svg11.dtd">
<svg version="1.1" id="Layer_1" xmlns="http://www.w3.org/2000/svg" xmlns:xlink="http://www.w3.org/1999/xlink" x="0px" y="0px"
	 width="140px" height="91px" viewBox="0 0 140 91" enable-background="new 0 0 140 91" xml:space="preserve">
<g>
	<g>
		<g>
			<path fill-rule="evenodd" clip-rule="evenodd" fill="#9C3793" d="M57.516,39.193c2.074-0.489,3.445,0.164,4.752,1.532
				c1.387,1.458,2.773,2.92,4.082,4.299c1.752-1.728,3.344-3.299,4.994-4.927c-0.637-0.581-1.303-1.259-2.039-1.854
				c-2.617-2.113-4.674-4.25-4.002-8.215c0.459-2.702-1.41-4.83-3.973-5.963c-2.455-1.084-4.895-0.986-7.563,0.507
				c1.266,0.847,2.281,1.531,3.307,2.212c2.012,1.34,2.322,2.899,0.986,4.989c-1.32,2.071-2.699,2.392-4.775,1.109
				c-1.115-0.688-2.227-1.382-3.473-2.155C49.291,35.869,53.301,40.186,57.516,39.193z"/>
			<path fill-rule="evenodd" clip-rule="evenodd" fill="#9C3793" d="M61.172,49.281c0.076,0.181-0.947,1.143-1.115,1.059
				c-1.074-0.541-1.525,0.232-2.082,0.8c-2.99,3.045-5.984,6.086-8.955,9.151c-1.938,2.002-2.01,4.371-0.23,6.128
				c1.764,1.745,4.199,1.651,6.129-0.298c3.045-3.074,6.08-6.157,9.059-9.297c0.395-0.414,0.355-1.207,0.633-1.768
				c0.244-0.494,0.83-1.341,0.961-1.288c1.6,0.651,2.025-0.613,2.643-1.307c-1.949-1.949-3.818-3.814-5.789-5.782
				C62.006,47.445,60.496,47.695,61.172,49.281z"/>
			<path fill-rule="evenodd" clip-rule="evenodd" fill="#9C3793" d="M91.063,58.566c-4.439-4.211-8.916-8.382-13.383-12.565
				c-0.938-0.879-1.893-1.741-2.695-2.478c-1.768,1.727-3.414,3.336-5.115,4.997c5.326,5.34,10.684,10.727,16.068,16.087
				c0.361,0.359,0.887,0.607,1.381,0.772c1.701,0.566,3.525-0.134,4.49-1.663C92.908,61.977,92.691,60.112,91.063,58.566z"/>
			<path fill-rule="evenodd" clip-rule="evenodd" fill="#9C3793" d="M67.24,49.4c7.09-7.083,14.061-14.031,21-21.008
				c0.529-0.533,0.902-1.247,1.26-1.924c0.162-0.304,0.107-0.725,0.148-1.09c-0.414,0.036-0.92-0.067-1.23,0.133
				c-0.936,0.609-1.887,1.244-2.678,2.025c-4.807,4.75-9.572,9.546-14.354,14.323c-1.926,1.925-3.857,3.842-5.957,5.931
				C66.064,48.355,66.584,48.818,67.24,49.4z"/>
		</g>
		<circle fill-rule="evenodd" clip-rule="evenodd" fill="#FFFFFF" cx="88.449" cy="61.405" r="1.939"/>
	</g>
	<rect fill="none" width="140" height="91"/>
</g>
</svg>
