<?xml version="1.0" encoding="utf-8"?>
<!-- Generator: Adobe Illustrator 16.0.0, SVG Export Plug-In . SVG Version: 6.00 Build 0)  -->
<!DOCTYPE svg PUBLIC "-//W3C//DTD SVG 1.1//EN" "http://www.w3.org/Graphics/SVG/1.1/DTD/svg11.dtd">
<svg version="1.1" id="Layer_1" xmlns="http://www.w3.org/2000/svg" xmlns:xlink="http://www.w3.org/1999/xlink" x="0px" y="0px"
	 width="140px" height="91px" viewBox="0 0 140 91" enable-background="new 0 0 140 91" xml:space="preserve">
<g>
	<g>
		<g>
			<circle fill="#9C3793" cx="42.163" cy="37.567" r="3.22"/>
			<circle fill="#FFFFFF" cx="42.164" cy="37.567" r="1.811"/>
			<path fill="#9C3793" d="M111.684,34.557c-0.248-0.128-0.635-0.825-0.859-1.544c-0.227-0.722-2.092-1.602-4.146-1.957
				c-2.055-0.354-4.561-1.463-5.572-2.464c-1.012-1-3.637-1.817-5.83-1.817H59.648c-2.195,0-5.596,0.808-7.555,1.797l-1.32,0.668
				c-1.961,0.988-5.348,2.027-7.525,2.309l-4.83,0.621c-2.178,0.28-3.959,0.986-3.959,1.566c0,0.581-0.223,1.153-0.498,1.271
				c-0.273,0.118-0.496,0.681-0.496,1.252c0,0.57,0.471,1.264,1.045,1.544c0.465,0.228,2.045,0.42,3.797,0.485
				c-0.043-0.234-0.066-0.475-0.066-0.721c0-2.166,1.756-3.924,3.924-3.924c2.166,0,3.924,1.758,3.924,3.924
				c0,0.256-0.025,0.505-0.072,0.744h49.93c-0.047-0.239-0.072-0.488-0.072-0.744c0-2.166,1.758-3.924,3.926-3.924
				c2.164,0,3.924,1.758,3.924,3.924c0,0.256-0.027,0.505-0.072,0.744h4.492c2.195,0,3.992-0.791,3.992-1.761
				C112.135,35.583,111.932,34.686,111.684,34.557z"/>
			<path fill="#9C3793" d="M103.016,37.567c0,1.779-1.441,3.222-3.217,3.222c-1.779,0-3.223-1.442-3.223-3.222
				c0-1.777,1.443-3.219,3.223-3.219C101.574,34.349,103.016,35.79,103.016,37.567z"/>
			<path fill="#FFFFFF" d="M101.611,37.567c0,1.001-0.814,1.813-1.813,1.813c-1.002,0-1.813-0.812-1.813-1.813
				c0-0.999,0.811-1.811,1.813-1.811C100.797,35.757,101.611,36.568,101.611,37.567z"/>
			<g>
				<path fill="#FFFFFF" d="M89.566,31.839h10.756c-0.043-1.606-0.613-2.106-0.758-2.209c-0.793-0.501-2.564-1.082-4.289-1.082
					h-4.381L89.566,31.839z"/>
				<polygon fill="#FFFFFF" points="90.219,28.548 77.094,28.548 75.76,31.839 88.891,31.839 				"/>
				<path fill="#FFFFFF" d="M63.24,28.548h-3.592c-1.9,0-5.057,0.75-6.756,1.607l-1.32,0.666c-0.086,0.043-0.17,0.086-0.258,0.128
					l0,0c0,0-0.926,0.89,0.457,0.89h10.143L63.24,28.548z"/>
				<polygon fill="#FFFFFF" points="62.588,31.839 75.088,31.839 76.42,28.548 63.918,28.548 				"/>
			</g>
		</g>
		<g>
			<path fill="#9C3793" d="M113.539,56.628l-1.801-0.357c-0.818-0.161-1.975-0.771-2.572-1.354l-3.439-3.36
				c-0.598-0.583-1.766-1.059-2.6-1.059H90.619c-0.836,0-1.99,0.49-2.57,1.089l-1.984,2.049c-0.58,0.599-1.721,1.23-2.537,1.404
				l-7.418,1.569c-0.816,0.173-1.484,0.997-1.484,1.831v1.482c0,0.834,0.682,1.516,1.516,1.516h2.201l0,0
				c0-1.941,1.574-3.516,3.516-3.516s3.516,1.574,3.516,3.516l0,0h17.324l0,0c0-1.941,1.572-3.516,3.516-3.516
				c1.939,0,3.514,1.574,3.514,3.516l0,0h3.785c0.834,0,1.516-0.682,1.516-1.516V58.44
				C115.027,57.606,114.357,56.792,113.539,56.628z"/>
			<path d="M81.857,58.654c-1.539,0-2.785,1.245-2.785,2.784s1.246,2.787,2.785,2.787s2.785-1.248,2.785-2.787
				S83.396,58.654,81.857,58.654z M81.857,62.608c-0.648,0-1.176-0.527-1.176-1.176c0-0.65,0.527-1.176,1.176-1.176
				c0.65,0,1.176,0.525,1.176,1.176C83.033,62.081,82.508,62.608,81.857,62.608z"/>
			<path d="M106.213,58.651c-1.539,0-2.787,1.248-2.787,2.787c0,1.538,1.248,2.785,2.787,2.785s2.785-1.247,2.785-2.785
				C108.998,59.899,107.752,58.651,106.213,58.651z M106.213,62.608c-0.648,0-1.178-0.527-1.178-1.176
				c0-0.65,0.529-1.176,1.178-1.176c0.646,0,1.174,0.525,1.174,1.176C107.387,62.081,106.859,62.608,106.213,62.608z"/>
			<circle fill="#9C3793" cx="81.857" cy="61.438" r="2.756"/>
			<circle fill="#FFFFFF" cx="81.857" cy="61.438" r="1.553"/>
			<path d="M106.213,58.654c-1.539,0-2.787,1.245-2.787,2.784s1.248,2.787,2.787,2.787c1.537,0,2.785-1.248,2.785-2.787
				S107.75,58.654,106.213,58.654z M106.213,62.608c-0.65,0-1.178-0.527-1.178-1.176c0-0.65,0.527-1.176,1.178-1.176
				c0.646,0,1.174,0.525,1.174,1.176C107.387,62.081,106.859,62.608,106.213,62.608z"/>
			<circle fill="#9C3793" cx="106.211" cy="61.438" r="2.758"/>
			<circle fill="#FFFFFF" cx="106.213" cy="61.438" r="1.551"/>
			<g>
				<path fill="#FFFFFF" d="M96.85,51.787h-4.713c-0.836,0-1.814,0.078-2.172,0.176c-0.361,0.097-1.438,0.981-1.982,1.545
					s-1.164,1.175-1.369,1.357c-0.213,0.183-0.18,0.618,0.656,0.618h8.949L96.85,51.787z"/>
				<path fill="#FFFFFF" d="M106.816,54.425l-0.906-0.886c-0.596-0.583-1.354-1.216-1.684-1.406
					c-0.33-0.188-1.783-0.346-2.615-0.346h-4.146l-0.629,3.696h9.547C107.219,55.483,107.414,55.007,106.816,54.425z"/>
			</g>
		</g>
		<g>
			<path fill="#9C3793" d="M63.889,56.628l-1.803-0.357c-0.82-0.161-1.977-0.771-2.572-1.354l-3.443-3.36
				c-0.594-0.583-1.762-1.059-2.598-1.059H40.965c-0.834,0-1.99,0.49-2.57,1.089l-1.984,2.049c-0.58,0.599-1.721,1.23-2.535,1.404
				l-7.42,1.569c-0.818,0.173-1.482,0.997-1.482,1.831v1.482c0,0.834,0.682,1.516,1.516,1.516h2.201l0,0
				c0-1.941,1.572-3.514,3.516-3.514c1.941,0,3.514,1.572,3.514,3.514l0,0h17.324l0,0c0-1.941,1.574-3.514,3.516-3.514
				s3.516,1.572,3.516,3.514l0,0h3.783c0.832,0,1.518-0.682,1.518-1.516V58.44C65.375,57.606,64.701,56.792,63.889,56.628z"/>
			<path d="M32.205,58.654c-1.539,0-2.787,1.245-2.787,2.784s1.248,2.787,2.787,2.787s2.785-1.248,2.785-2.787
				S33.74,58.654,32.205,58.654z M32.205,62.608c-0.65,0-1.178-0.527-1.178-1.176c0-0.65,0.527-1.176,1.178-1.176
				c0.648,0,1.176,0.525,1.176,1.176C33.381,62.081,32.854,62.608,32.205,62.608z"/>
			<path d="M56.559,58.651c-1.539,0-2.787,1.248-2.787,2.787c0,1.538,1.248,2.785,2.787,2.785c1.537,0,2.787-1.247,2.787-2.785
				C59.346,59.899,58.096,58.651,56.559,58.651z M56.559,62.608c-0.648,0-1.176-0.527-1.176-1.176c0-0.65,0.527-1.176,1.176-1.176
				s1.176,0.525,1.176,1.176C57.734,62.081,57.207,62.608,56.559,62.608z"/>
			<circle fill="#9C3793" cx="32.203" cy="61.438" r="2.758"/>
			<circle fill="#FFFFFF" cx="32.204" cy="61.438" r="1.552"/>
			<path d="M56.559,58.654c-1.539,0-2.787,1.245-2.787,2.784s1.248,2.787,2.787,2.787c1.537,0,2.787-1.248,2.787-2.787
				S58.096,58.654,56.559,58.654z M56.559,62.608c-0.65,0-1.176-0.527-1.176-1.176c0-0.65,0.525-1.176,1.176-1.176
				c0.648,0,1.176,0.525,1.176,1.176C57.734,62.081,57.207,62.608,56.559,62.608z"/>
			<circle fill="#9C3793" cx="56.559" cy="61.438" r="2.758"/>
			<circle fill="#FFFFFF" cx="56.558" cy="61.438" r="1.552"/>
			<g>
				<path fill="#FFFFFF" d="M47.195,51.787H42.48c-0.834,0-1.811,0.078-2.168,0.176c-0.361,0.097-1.439,0.981-1.982,1.545
					c-0.549,0.563-1.164,1.175-1.373,1.357s-0.176,0.618,0.66,0.618h8.947L47.195,51.787z"/>
				<path fill="#FFFFFF" d="M57.162,54.425l-0.906-0.886c-0.596-0.583-1.354-1.216-1.684-1.406c-0.33-0.188-1.781-0.346-2.615-0.346
					h-4.146l-0.629,3.696h9.549C57.564,55.483,57.762,55.007,57.162,54.425z"/>
			</g>
		</g>
	</g>
	<rect fill="none" width="140" height="91"/>
</g>
</svg>
