<?xml version="1.0" encoding="utf-8"?>
<!-- Generator: Adobe Illustrator 16.0.0, SVG Export Plug-In . SVG Version: 6.00 Build 0)  -->
<!DOCTYPE svg PUBLIC "-//W3C//DTD SVG 1.1//EN" "http://www.w3.org/Graphics/SVG/1.1/DTD/svg11.dtd">
<svg version="1.1" id="Layer_1" xmlns="http://www.w3.org/2000/svg" xmlns:xlink="http://www.w3.org/1999/xlink" x="0px" y="0px"
	 width="140px" height="91px" viewBox="0 0 140 91" enable-background="new 0 0 140 91" xml:space="preserve">
<g>
	<g>
		<g>
			<path fill="#9C3793" d="M79.549,32.592c0.613,0,0.893-0.45,0.622-0.999c0,0-3.301-6.706-6.947-6.706
				c-3.65,0-6.951,6.706-6.951,6.706c-0.271,0.549,0.009,0.999,0.622,0.999H79.549z"/>
		</g>
		<circle fill="#9C3793" stroke="#FFFFFF" stroke-width="1.1788" stroke-miterlimit="10" cx="73.223" cy="22.179" r="4.665"/>
		<g>
			<g id="Layer_x0020_1_2_">
				<g>
					<g>
						<path fill="#9C3793" d="M77.909,49.331c0.231-0.128,0.42-0.017,0.42,0.248v17.572c0,0.265-0.216,0.48-0.479,0.48H38.727
							c-0.264,0-0.48-0.216-0.48-0.48V32.69c0-0.264,0.216-0.479,0.48-0.479h4.702c0.264,0,0.48,0.216,0.48,0.479v22.178
							c0,0.265,0.189,0.376,0.42,0.248l10.633-5.884c0.231-0.128,0.42-0.017,0.42,0.247v5.488c0,0.265,0.189,0.376,0.42,0.248
							l10.635-5.885c0.231-0.128,0.42-0.017,0.42,0.248v5.389c0,0.265,0.188,0.376,0.42,0.248L77.909,49.331z"/>
					</g>
				</g>
			</g>
			<g>
				<rect x="46.515" y="59.196" fill="#FFFFFF" width="5.08" height="3.769"/>
				<rect x="55.995" y="59.196" fill="#FFFFFF" width="5.078" height="3.769"/>
				<rect x="65.474" y="59.196" fill="#FFFFFF" width="5.08" height="3.769"/>
			</g>
		</g>
		<g>
			<g>
				<path fill="#9C3793" d="M67.243,41.777c0.869,0,1.266-0.638,0.882-1.418c0,0-4.683-9.514-9.858-9.514s-9.859,9.514-9.859,9.514
					c-0.384,0.78,0.013,1.418,0.882,1.418H67.243z"/>
			</g>
			<circle fill="#9C3793" stroke="#FFFFFF" stroke-width="1.6722" stroke-miterlimit="10" cx="58.268" cy="27.006" r="6.618"/>
		</g>
		<g>
			<g>
				<path fill="#9C3793" d="M97.116,41.777c0.869,0,1.266-0.638,0.882-1.418c0,0-4.683-9.514-9.856-9.514
					c-5.176,0-9.858,9.514-9.858,9.514c-0.384,0.78,0.013,1.418,0.882,1.418H97.116z"/>
			</g>
			<path fill="#9C3793" stroke="#FFFFFF" stroke-width="1.6722" stroke-miterlimit="10" d="M94.759,27.006
				c0,3.654-2.963,6.619-6.617,6.619c-3.658,0-6.619-2.965-6.619-6.619c0-3.656,2.961-6.619,6.619-6.619
				C91.796,20.387,94.759,23.35,94.759,27.006z"/>
		</g>
		<circle fill="#FFFFFF" cx="87.463" cy="59.196" r="14.29"/>
		<circle fill="#FFFFFF" stroke="#9C3793" stroke-width="1.7484" stroke-miterlimit="10" cx="87.464" cy="59.196" r="11.369"/>
		<g>
			<path fill="#9C3793" d="M86.778,63.063l0.152-3.451c-1.063-0.355-1.83-0.856-2.305-1.503c-0.475-0.645-0.693-1.411-0.654-2.302
				c0.041-0.901,0.359-1.644,0.955-2.231s1.367-0.906,2.314-0.957l0.039-0.816l1.193,0.054l-0.037,0.815
				c0.869,0.145,1.551,0.473,2.045,0.988c0.496,0.514,0.795,1.186,0.9,2.016l-2.096,0.179c-0.098-0.653-0.408-1.106-0.93-1.362
				l-0.145,3.221c1.301,0.415,2.18,0.918,2.631,1.508c0.453,0.59,0.66,1.33,0.619,2.219c-0.043,0.994-0.381,1.818-1.012,2.471
				c-0.633,0.654-1.488,1.035-2.564,1.142l-0.07,1.54l-1.193-0.054l0.066-1.499c-0.943-0.158-1.699-0.546-2.268-1.166
				c-0.564-0.619-0.906-1.474-1.025-2.562l2.164-0.136c0.066,0.443,0.213,0.83,0.441,1.159
				C86.228,62.664,86.487,62.906,86.778,63.063z M87.163,54.414c-0.328,0.096-0.596,0.271-0.799,0.526
				c-0.205,0.255-0.314,0.541-0.328,0.859c-0.012,0.292,0.064,0.565,0.229,0.824c0.164,0.256,0.422,0.471,0.771,0.641L87.163,54.414
				z M87.968,63.23c0.412-0.059,0.758-0.233,1.029-0.527c0.271-0.293,0.416-0.646,0.436-1.058c0.018-0.367-0.08-0.688-0.283-0.966
				c-0.205-0.275-0.551-0.495-1.039-0.66L87.968,63.23z"/>
		</g>
	</g>
	<rect fill="none" width="140" height="91"/>
</g>
</svg>
