<?xml version="1.0" encoding="utf-8"?>
<!-- Generator: Adobe Illustrator 16.0.0, SVG Export Plug-In . SVG Version: 6.00 Build 0)  -->
<!DOCTYPE svg PUBLIC "-//W3C//DTD SVG 1.1//EN" "http://www.w3.org/Graphics/SVG/1.1/DTD/svg11.dtd">
<svg version="1.1" id="Layer_1" xmlns="http://www.w3.org/2000/svg" xmlns:xlink="http://www.w3.org/1999/xlink" x="0px" y="0px"
	 width="140px" height="91px" viewBox="0 0 140 91" enable-background="new 0 0 140 91" xml:space="preserve">
<g>
	<g>
		<g>
			
				<path fill-rule="evenodd" clip-rule="evenodd" fill="none" stroke="#9C3793" stroke-width="1.3119" stroke-linecap="round" stroke-linejoin="round" stroke-miterlimit="10" d="
				M48.926,65.636c5.967,0,11.934-0.011,17.9,0.006c1.561,0.006,3.072-1.066,3.652-2.818c0.479-1.451-0.107-3.026-1.295-4.047
				c-0.928-0.797-1.992-0.998-3.107-1c-6.686-0.025-13.369-0.064-20.053,0.01c-3.529,0.039-6.17,2.84-5.695,6.441
				c0.32,2.432,2.16,4.372,4.473,4.799c0.693,0.129,1.371,0.169,2.066,0.169c9.338,0.001,18.676,0.025,28.018-0.015
				c2.578-0.012,4.535-1.197,5.932-3.434c0.674-1.074,1.043-2.224,1.053-3.391c0.014-2.088-0.838-3.904-2.395-5.34
				c-1.59-1.466-3.553-1.868-5.623-1.871c-8.869-0.013-17.74,0.002-26.611-0.023"/>
		</g>
		<g>
			<path fill="#9C3793" d="M81.521,45.247c0,1.484-1.215,2.697-2.699,2.697H44.559c-1.482,0-2.697-1.213-2.697-2.697V26.056
				c0-1.484,1.215-2.699,2.697-2.699h34.264c1.484,0,2.699,1.215,2.699,2.699V45.247z"/>
			
				<polyline fill="none" stroke="#FFFFFF" stroke-width="1.9037" stroke-linecap="round" stroke-linejoin="round" stroke-miterlimit="10" points="
				83.105,21.797 61.689,38.427 61.691,38.427 40.275,21.797 			"/>
			
				<line fill="none" stroke="#FFFFFF" stroke-width="1.9037" stroke-linecap="round" stroke-linejoin="round" stroke-miterlimit="10" x1="83.105" y1="49.374" x2="65.328" y2="35.569"/>
			
				<line fill="none" stroke="#FFFFFF" stroke-width="1.9037" stroke-linecap="round" stroke-linejoin="round" stroke-miterlimit="10" x1="40.275" y1="49.374" x2="57.945" y2="35.651"/>
		</g>
		<rect x="88.75" y="34.962" fill="#9C3793" width="10.945" height="27.766"/>
		<path fill="#9C3793" d="M99.727,64.004v3.706c0,0.623-0.504,1.126-1.127,1.126h-8.725c-0.619,0-1.125-0.503-1.125-1.126v-3.706
			H99.727z"/>
		
			<line fill="none" stroke="#FFFFFF" stroke-width="1.503" stroke-linecap="round" stroke-linejoin="round" stroke-miterlimit="10" x1="91.617" y1="32.56" x2="91.617" y2="62.728"/>
		
			<line fill="none" stroke="#FFFFFF" stroke-width="1.503" stroke-linecap="round" stroke-linejoin="round" stroke-miterlimit="10" x1="96.973" y1="32.56" x2="96.973" y2="62.728"/>
		<g>
			<path fill="#9C3793" d="M94.223,25.569l4.264,8.642h-8.527L94.223,25.569 M94.223,23.871L88.75,34.962h10.945L94.223,23.871
				L94.223,23.871z"/>
		</g>
		<path fill="#FFFFFF" d="M96.676,25.264c0,0.466-0.381,0.847-0.846,0.847h-2.564c-0.467,0-0.846-0.381-0.846-0.847v-2.091
			c0-0.468,0.379-0.847,0.846-0.847h2.564c0.465,0,0.846,0.379,0.846,0.847V25.264z"/>
		<g>
			<path fill="#9C3793" d="M94.739,28.349c0.931,0,1.355-0.684,0.943-1.518l-0.711-1.441c-0.412-0.836-1.086-0.836-1.498,0
				l-0.711,1.441c-0.412,0.834,0.013,1.518,0.943,1.518H94.739z"/>
		</g>
	</g>
	<rect fill="none" width="140" height="91"/>
</g>
</svg>
