<?xml version="1.0" encoding="utf-8"?>
<!-- Generator: Adobe Illustrator 16.0.0, SVG Export Plug-In . SVG Version: 6.00 Build 0)  -->
<!DOCTYPE svg PUBLIC "-//W3C//DTD SVG 1.1//EN" "http://www.w3.org/Graphics/SVG/1.1/DTD/svg11.dtd">
<svg version="1.1" id="Layer_1" xmlns="http://www.w3.org/2000/svg" xmlns:xlink="http://www.w3.org/1999/xlink" x="0px" y="0px"
	 width="140px" height="91px" viewBox="0 0 140 91" enable-background="new 0 0 140 91" xml:space="preserve">
<g>
	<g>
		<g>
			<g>
				<g>
					<path fill="#9C3793" d="M85.191,43.115h3.025c1.645,0,2.52,0.9,2.922,1.951l2.145,5.527c0.848,0.109,2.354,1.107,2.354,2.992
						v7.029h-2.084v2.248c0,2.766-3.916,2.734-3.916,0v-2.248h-7.039h-0.004h0.004h-0.004h-7.039v2.248c0,2.734-3.914,2.766-3.914,0
						v-2.248h-2.084v-7.029c0-1.885,1.504-2.883,2.352-2.992l2.143-5.527c0.402-1.051,1.277-1.951,2.926-1.951h3.059H85.191z"/>
				</g>
			</g>
			<g>
				<g>
					<path fill="#FFFFFF" d="M82.594,50.537h-0.002h-8.465l1.613-4.348c0.201-0.613,0.502-1.055,1.209-1.063h5.643h0.002h0.004
						h5.645c0.707,0.008,1.008,0.449,1.209,1.063l1.613,4.348h-8.467H82.594z"/>
				</g>
				<g>
					<g>
						<ellipse fill="#FFFFFF" cx="73.66" cy="54.517" rx="1.809" ry="1.864"/>
						<path fill="#FFFFFF" d="M73.66,54.518"/>
					</g>
					<g>
						<ellipse fill="#FFFFFF" cx="91.531" cy="54.517" rx="1.809" ry="1.864"/>
						<path fill="#FFFFFF" d="M91.531,54.518"/>
					</g>
				</g>
			</g>
		</g>
		<g>
			<path fill="#9C3793" d="M64.092,62.353c0,1.415-1.158,2.573-2.573,2.573H46.938c-1.415,0-2.573-1.158-2.573-2.573V29.585
				c0-1.415,1.158-2.573,2.573-2.573h14.581c1.415,0,2.573,1.158,2.573,2.573V62.353z"/>
		</g>
		<g>
			<path fill="#FFFFFF" d="M71.996,46.804c0,0.896-0.733,1.63-1.63,1.63H53.902c-0.897,0-1.63-0.733-1.63-1.63V34.843
				c0-0.896,0.733-1.63,1.63-1.63h16.464c0.896,0,1.63,0.733,1.63,1.63V46.804z"/>
		</g>
		<g>
			<g>
				<path fill="#9C3793" d="M63.508,47.348c0.45,0,0.655-0.33,0.457-0.734c0,0-2.428-4.93-5.107-4.93
					c-2.682,0-5.107,4.93-5.107,4.93c-0.199,0.404,0.007,0.734,0.457,0.734H63.508z"/>
			</g>
			<circle fill="#9C3793" stroke="#FFFFFF" stroke-width="0.8662" stroke-miterlimit="10" cx="58.858" cy="39.695" r="3.429"/>
		</g>
		<g>
			<path fill="#9C3793" d="M82.035,36.984v-3.344c-1.041-0.299-1.805-0.748-2.293-1.354c-0.484-0.604-0.729-1.338-0.729-2.197
				c0-0.875,0.277-1.607,0.826-2.199c0.549-0.594,1.283-0.936,2.195-1.025v-0.791h1.16v0.791c0.846,0.1,1.518,0.389,2.02,0.865
				c0.5,0.477,0.818,1.113,0.957,1.91l-2.018,0.264c-0.125-0.627-0.445-1.051-0.959-1.277v3.121
				c1.277,0.346,2.145,0.795,2.607,1.346c0.465,0.551,0.695,1.256,0.695,2.117c0,0.963-0.291,1.775-0.871,2.434
				c-0.586,0.66-1.395,1.064-2.432,1.213v1.494h-1.16v-1.453c-0.92-0.111-1.666-0.455-2.24-1.027
				c-0.576-0.576-0.941-1.387-1.102-2.436l2.082-0.225c0.086,0.426,0.248,0.793,0.48,1.104
				C81.488,36.621,81.75,36.846,82.035,36.984z M82.035,28.604c-0.313,0.107-0.563,0.289-0.748,0.543
				c-0.188,0.256-0.279,0.537-0.279,0.846c0,0.283,0.084,0.545,0.256,0.787c0.168,0.242,0.428,0.439,0.771,0.586V28.604z
				 M83.195,37.096c0.398-0.074,0.723-0.26,0.975-0.555c0.248-0.295,0.373-0.643,0.373-1.043c0-0.355-0.105-0.662-0.316-0.92
				c-0.209-0.258-0.553-0.459-1.031-0.596V37.096z"/>
		</g>
	</g>
	<rect fill="none" width="140" height="91"/>
</g>
</svg>
