<?xml version="1.0" encoding="utf-8"?>
<!-- Generator: Adobe Illustrator 16.0.0, SVG Export Plug-In . SVG Version: 6.00 Build 0)  -->
<!DOCTYPE svg PUBLIC "-//W3C//DTD SVG 1.1//EN" "http://www.w3.org/Graphics/SVG/1.1/DTD/svg11.dtd">
<svg version="1.1" id="Layer_1" xmlns="http://www.w3.org/2000/svg" xmlns:xlink="http://www.w3.org/1999/xlink" x="0px" y="0px"
	 width="140px" height="91px" viewBox="0 0 140 91" enable-background="new 0 0 140 91" xml:space="preserve">
<g>
	<g>
		<g>
			<path fill="#9C3793" d="M71.498,28.012c-1.29-0.517-3.401-0.517-4.691,0l-18.033,7.214c-1.29,0.517-2.346,2.075-2.346,3.465
				v28.964c0,1.39,1.137,2.526,2.525,2.526h11.496c1.389,0,2.525-1.137,2.525-2.526V56.735c0-1.39,0.068-2.679,0.151-2.865
				s1.661-0.339,3.05-0.339h5.951c1.389,0,2.678,0.068,2.864,0.151s0.339,1.663,0.339,3.053v10.919c0,1.39,1.137,2.526,2.525,2.526
				H89.35c1.389,0,2.525-1.137,2.525-2.526V38.69c0-1.39-1.056-2.948-2.346-3.465L71.498,28.012z"/>
		</g>
		
			<polyline fill="none" stroke="#9C3793" stroke-width="3.8615" stroke-linecap="round" stroke-linejoin="round" stroke-miterlimit="10" points="
			94.941,37.381 69.152,27.066 43.365,37.381 		"/>
		<circle fill="#FFFFFF" cx="93.633" cy="37.82" r="17.002"/>
		<circle fill="#FFFFFF" stroke="#9C3793" stroke-width="2.0803" stroke-miterlimit="10" cx="93.631" cy="37.82" r="13.529"/>
		<g>
			<path fill="#9C3793" d="M92.814,42.42l0.184-4.104c-1.264-0.423-2.178-1.021-2.744-1.787c-0.564-0.769-0.822-1.683-0.775-2.74
				c0.047-1.071,0.426-1.956,1.135-2.655c0.709-0.698,1.627-1.076,2.756-1.14l0.043-0.968l1.422,0.062l-0.043,0.97
				c1.033,0.172,1.846,0.563,2.432,1.176c0.588,0.613,0.943,1.41,1.07,2.398l-2.492,0.213c-0.117-0.777-0.484-1.316-1.107-1.621
				l-0.172,3.833c1.551,0.495,2.594,1.093,3.131,1.794c0.541,0.702,0.785,1.582,0.738,2.641c-0.055,1.181-0.455,2.162-1.207,2.94
				c-0.75,0.778-1.771,1.231-3.051,1.356l-0.082,1.832l-1.422-0.064l0.082-1.782c-1.127-0.188-2.023-0.649-2.697-1.388
				c-0.674-0.736-1.082-1.752-1.221-3.047l2.572-0.162c0.08,0.528,0.256,0.988,0.525,1.379
				C92.162,41.945,92.471,42.235,92.814,42.42z M93.273,32.131c-0.389,0.113-0.705,0.322-0.951,0.627
				c-0.242,0.301-0.371,0.645-0.389,1.021c-0.016,0.347,0.074,0.674,0.271,0.98c0.195,0.306,0.502,0.559,0.918,0.762L93.273,32.131z
				 M94.23,42.621c0.494-0.069,0.9-0.277,1.225-0.628c0.324-0.349,0.498-0.768,0.52-1.258c0.02-0.437-0.092-0.821-0.338-1.149
				c-0.244-0.328-0.656-0.591-1.234-0.787L94.23,42.621z"/>
		</g>
	</g>
	<rect fill="none" width="140" height="91"/>
</g>
</svg>
