<?xml version="1.0" encoding="utf-8"?>
<!-- Generator: Adobe Illustrator 16.0.0, SVG Export Plug-In . SVG Version: 6.00 Build 0)  -->
<!DOCTYPE svg PUBLIC "-//W3C//DTD SVG 1.1//EN" "http://www.w3.org/Graphics/SVG/1.1/DTD/svg11.dtd">
<svg version="1.1" id="Layer_1" xmlns="http://www.w3.org/2000/svg" xmlns:xlink="http://www.w3.org/1999/xlink" x="0px" y="0px"
	 width="140px" height="91px" viewBox="0 0 140 91" enable-background="new 0 0 140 91" xml:space="preserve">
<g>
	<g>
		<g>
			<path fill="#9C3793" d="M71.254,32.553c9.101,0,16.505,7.404,16.505,16.503S80.354,65.56,71.254,65.56
				s-16.505-7.404-16.505-16.504S62.153,32.553,71.254,32.553 M71.254,30.274c-10.373,0-18.783,8.409-18.783,18.782
				c0,10.375,8.41,18.781,18.783,18.781s18.783-8.406,18.783-18.781C90.037,38.683,81.627,30.274,71.254,30.274L71.254,30.274z"/>
		</g>
		<g>
			<path fill="#9C3793" d="M71.254,39.277c5.392,0,9.778,4.387,9.778,9.779s-4.387,9.777-9.778,9.777
				c-5.391,0-9.776-4.385-9.776-9.777S65.863,39.277,71.254,39.277 M71.254,37.867c-6.182,0-11.188,5.012-11.188,11.189
				c0,6.18,5.006,11.189,11.188,11.189c6.18,0,11.189-5.01,11.189-11.189C82.443,42.878,77.434,37.867,71.254,37.867L71.254,37.867z
				"/>
		</g>
		<path fill="#9C3793" d="M49.514,37.412c-0.006,1.41-1.297,2.928-2.971,2.928v23.92c0,3.408-4.631,3.408-4.641,0v-23.92
			c-1.623,0-3.043-1.254-3.039-3.129V24.03c-0.004-1.143,1.654-1.186,1.666,0.045v9.74h1.373v-9.828c0-1.053,1.596-1.119,1.6,0.043
			v9.785h1.42v-9.807c0.01-1.107,1.559-1.152,1.553,0.045v9.762h1.42v-9.807c-0.004-1.098,1.615-1.141,1.619,0.045V37.412
			L49.514,37.412z"/>
		<path fill="#9C3793" d="M101.139,27.094v37.166c0.006,3.322-4.633,3.271-4.637,0V49.503h-2.463v-22.41
			C94.035,21.876,101.145,21.876,101.139,27.094L101.139,27.094z"/>
	</g>
	<rect fill="none" width="140" height="91"/>
</g>
</svg>
