<?xml version="1.0" encoding="utf-8"?>
<!-- Generator: Adobe Illustrator 16.0.0, SVG Export Plug-In . SVG Version: 6.00 Build 0)  -->
<!DOCTYPE svg PUBLIC "-//W3C//DTD SVG 1.1//EN" "http://www.w3.org/Graphics/SVG/1.1/DTD/svg11.dtd">
<svg version="1.1" id="Layer_1" xmlns="http://www.w3.org/2000/svg" xmlns:xlink="http://www.w3.org/1999/xlink" x="0px" y="0px"
	 width="140px" height="91px" viewBox="0 0 140 91" enable-background="new 0 0 140 91" xml:space="preserve">
<g>
	<g>
		<g>
			<path fill="#9C3793" d="M89.369,37.438c0.137,0.137,0.137,0.361,0,0.498l-3.717,3.721c-0.137,0.137-0.361,0.137-0.498,0
				l-0.941-0.941c-0.137-0.137-0.137-0.361,0-0.498l3.719-3.719c0.137-0.137,0.361-0.137,0.498,0L89.369,37.438z"/>
		</g>
		
			<line fill="none" stroke="#9C3793" stroke-width="0.9135" stroke-linecap="round" stroke-miterlimit="10" x1="90.073" y1="38.209" x2="87.659" y2="35.797"/>
		<g>
			<path fill="#9C3793" d="M72.856,56.485c-0.469,0-0.908-0.182-1.238-0.513l-1.723-1.722c-0.683-0.685-0.682-1.796,0.002-2.478
				l13.671-13.67c0.33-0.329,0.771-0.511,1.239-0.511s0.908,0.182,1.238,0.511l1.721,1.721c0.683,0.683,0.683,1.794,0,2.477
				L74.095,55.975C73.765,56.304,73.325,56.485,72.856,56.485z"/>
			<path fill="#FFFFFF" d="M84.808,38.05c0.332,0,0.663,0.125,0.915,0.377l1.721,1.721c0.503,0.503,0.503,1.327,0,1.83
				L73.771,55.651c-0.251,0.251-0.583,0.377-0.915,0.377c-0.331,0-0.663-0.126-0.915-0.378l-1.723-1.723
				c-0.503-0.504-0.503-1.328,0.001-1.831l13.672-13.67C84.144,38.175,84.476,38.05,84.808,38.05 M84.808,37.136
				c-0.591,0-1.146,0.229-1.562,0.645L69.574,51.45c-0.416,0.416-0.646,0.971-0.646,1.562c0,0.591,0.229,1.146,0.645,1.562
				l1.724,1.723c0.415,0.416,0.97,0.646,1.561,0.646l0,0c0.591,0,1.146-0.229,1.561-0.645l13.672-13.674
				c0.861-0.861,0.861-2.262,0-3.123l-1.721-1.721C85.953,37.365,85.398,37.136,84.808,37.136L84.808,37.136z"/>
		</g>
		
			<line fill="none" stroke="#9C3793" stroke-width="1.8269" stroke-linecap="round" stroke-miterlimit="10" x1="72.495" y1="58.891" x2="66.979" y2="53.377"/>
		<path fill="none" stroke="#9C3793" stroke-width="3.1972" stroke-miterlimit="10" d="M83.45,48.977
			c5.422,0,9.814,4.395,9.814,9.814s-4.393,9.814-9.814,9.814"/>
		<path fill="#9C3793" d="M75.29,70.473v-1.887c0-0.869,0.578-1.578,1.283-1.578h16.639c0.705,0,1.285,0.709,1.285,1.578v1.887
			H75.29z"/>
		<g>
			<path fill="#9C3793" d="M81.382,52.913c-1.855,0-3.366-1.51-3.366-3.364c0-1.855,1.511-3.366,3.366-3.366
				c1.857,0,3.368,1.511,3.368,3.366C84.75,51.403,83.239,52.913,81.382,52.913z"/>
			<path fill="#FFFFFF" d="M81.382,46.566c1.648,0,2.984,1.334,2.984,2.982c0,1.646-1.336,2.98-2.984,2.98s-2.982-1.334-2.982-2.98
				C78.399,47.9,79.733,46.566,81.382,46.566 M81.382,45.8c-2.067,0-3.749,1.682-3.749,3.749c0,2.066,1.682,3.747,3.749,3.747
				c2.068,0,3.751-1.681,3.751-3.747C85.133,47.481,83.45,45.8,81.382,45.8L81.382,45.8z"/>
		</g>
		<g>
			<path fill="none" stroke="#9C3793" stroke-width="1.8269" stroke-linecap="round" stroke-miterlimit="10" d="M57.481,39.748
				v28.029c0,3.096-2.512,5.605-5.605,5.605l0,0c-3.096,0-5.605-2.51-5.605-5.605V39.748"/>
			
				<line fill="none" stroke="#9C3793" stroke-width="2.8442" stroke-linecap="round" stroke-miterlimit="10" x1="45.503" y1="39.078" x2="58.065" y2="39.078"/>
			
				<line fill="none" stroke="#9C3793" stroke-width="1.8269" stroke-linecap="round" stroke-miterlimit="10" x1="51.876" y1="45.963" x2="57.481" y2="45.963"/>
			
				<line fill="none" stroke="#9C3793" stroke-width="1.8269" stroke-linecap="round" stroke-miterlimit="10" x1="51.876" y1="51.443" x2="57.481" y2="51.443"/>
			
				<line fill="none" stroke="#9C3793" stroke-width="1.8269" stroke-linecap="round" stroke-miterlimit="10" x1="51.876" y1="56.926" x2="57.481" y2="56.926"/>
			
				<line fill="none" stroke="#9C3793" stroke-width="1.8269" stroke-linecap="round" stroke-miterlimit="10" x1="51.876" y1="62.406" x2="57.481" y2="62.406"/>
		</g>
		<g>
			
				<line fill="none" stroke="#9C3793" stroke-width="3.1908" stroke-miterlimit="10" x1="72.495" y1="22.072" x2="72.495" y2="39.748"/>
			
				<line fill="none" stroke="#9C3793" stroke-width="3.1908" stroke-miterlimit="10" x1="81.333" y1="30.908" x2="63.653" y2="30.908"/>
			
				<line fill="none" stroke="#9C3793" stroke-width="3.1908" stroke-miterlimit="10" x1="78.745" y1="24.66" x2="66.243" y2="37.16"/>
			
				<line fill="none" stroke="#9C3793" stroke-width="3.1908" stroke-miterlimit="10" x1="78.745" y1="37.16" x2="66.243" y2="24.66"/>
			<path fill="#9C3793" d="M79.038,30.875c0,3.615-2.932,6.545-6.543,6.545c-3.615,0-6.545-2.93-6.545-6.545
				c0-3.613,2.93-6.541,6.545-6.541C76.106,24.334,79.038,27.262,79.038,30.875z"/>
			<circle fill="#FFFFFF" cx="72.493" cy="30.875" r="3.682"/>
		</g>
		<g>
			
				<line fill="none" stroke="#9C3793" stroke-width="1.9186" stroke-miterlimit="10" x1="59.993" y1="17.617" x2="59.993" y2="28.248"/>
			
				<line fill="none" stroke="#9C3793" stroke-width="1.9186" stroke-miterlimit="10" x1="65.31" y1="22.932" x2="54.679" y2="22.932"/>
			
				<line fill="none" stroke="#9C3793" stroke-width="1.9186" stroke-miterlimit="10" x1="63.751" y1="19.174" x2="56.235" y2="26.689"/>
			
				<line fill="none" stroke="#9C3793" stroke-width="1.9186" stroke-miterlimit="10" x1="63.751" y1="26.689" x2="56.235" y2="19.174"/>
			<circle fill="#9C3793" cx="59.993" cy="22.91" r="3.936"/>
			<path fill="#FFFFFF" d="M62.208,22.91c0,1.225-0.992,2.217-2.215,2.217c-1.225,0-2.213-0.992-2.213-2.217
				c0-1.221,0.988-2.213,2.213-2.213C61.216,20.697,62.208,21.689,62.208,22.91z"/>
		</g>
	</g>
	<rect fill="none" width="140" height="91"/>
</g>
</svg>
