<?xml version="1.0" encoding="utf-8"?>
<!-- Generator: Adobe Illustrator 16.0.0, SVG Export Plug-In . SVG Version: 6.00 Build 0)  -->
<!DOCTYPE svg PUBLIC "-//W3C//DTD SVG 1.1//EN" "http://www.w3.org/Graphics/SVG/1.1/DTD/svg11.dtd">
<svg version="1.1" id="Layer_1" xmlns="http://www.w3.org/2000/svg" xmlns:xlink="http://www.w3.org/1999/xlink" x="0px" y="0px"
	 width="140px" height="91px" viewBox="0 0 140 91" enable-background="new 0 0 140 91" xml:space="preserve">
<g>
	<g>
		<path fill="#9C3793" d="M71.032,27.127V24.92c0-0.654-0.461-1.186-1.031-1.186c-0.568,0-1.031,0.531-1.031,1.186v2.207
			c-11.217,0.5-20.27,9.273-21.176,20.348c1.867-2.553,4.57-4.158,7.582-4.158c2.832,0,5.396,1.42,7.242,3.713
			c1.848-2.293,4.41-3.713,7.24-3.713c2.836,0,5.395,1.42,7.242,3.713c1.85-2.293,4.408-3.713,7.24-3.713
			c3.166,0,5.998,1.773,7.865,4.557C91.489,36.623,82.368,27.65,71.032,27.127z"/>
		<path fill="none" stroke="#9C3793" stroke-width="2.2779" stroke-linecap="round" stroke-miterlimit="10" d="M78.532,63.002
			c0,2.355-1.91,4.266-4.266,4.266s-4.266-1.91-4.266-4.266V40.629"/>
		<g>
			<polygon fill="#9C3793" points="90.649,52.178 86.71,52.178 86.71,48.305 82.476,48.305 82.476,52.178 78.532,52.178 
				78.532,56.412 82.476,56.412 82.476,60.422 86.71,60.422 86.71,56.412 90.649,56.412 			"/>
		</g>
	</g>
	<rect fill="none" width="140" height="91"/>
</g>
</svg>
