<?xml version="1.0" encoding="utf-8"?>
<!-- Generator: Adobe Illustrator 16.0.0, SVG Export Plug-In . SVG Version: 6.00 Build 0)  -->
<!DOCTYPE svg PUBLIC "-//W3C//DTD SVG 1.1//EN" "http://www.w3.org/Graphics/SVG/1.1/DTD/svg11.dtd">
<svg version="1.1" id="Layer_1" xmlns="http://www.w3.org/2000/svg" xmlns:xlink="http://www.w3.org/1999/xlink" x="0px" y="0px"
	 width="102.845px" height="31.945px" viewBox="0 0 102.845 31.945" enable-background="new 0 0 102.845 31.945"
	 xml:space="preserve">
<g>
	<g>
		<g>
			<path fill="#A7A8AC" d="M102.845,27.951c0,2.196-1.798,3.994-3.994,3.994H10.839c-2.197,0-3.995-1.798-3.995-3.994V10.939
				c0-2.196,1.797-3.994,3.995-3.994h88.011c2.196,0,3.994,1.798,3.994,3.994V27.951z"/>
		</g>
		<g>
			<path fill="#9C3793" d="M5.99,27.989c-2.753,0-4.994-2.24-4.994-4.994V5.99c0-2.754,2.24-4.994,4.994-4.994h88.006
				c2.754,0,4.994,2.24,4.994,4.994v17.005c0,2.754-2.24,4.994-4.994,4.994H5.99z"/>
			<path fill="#FFFFFF" d="M93.996,1.993c2.198,0,3.997,1.799,3.997,3.997v17.005c0,2.199-1.799,3.998-3.997,3.998H5.99
				c-2.198,0-3.997-1.799-3.997-3.998V5.99c0-2.198,1.799-3.997,3.997-3.997H93.996 M93.996,0H5.99C2.687,0,0,2.688,0,5.99v17.005
				c0,3.303,2.687,5.991,5.99,5.991h88.006c3.303,0,5.99-2.688,5.99-5.991V5.99C99.986,2.688,97.299,0,93.996,0L93.996,0z"/>
		</g>
	</g>
	<g>
		<text transform="matrix(1 0 0 1 12.6113 18.8394)" fill="#FFFFFF" font-family="'Glegoo-Bold'" font-size="12"></text>
	</g>
</g>
</svg>
