<?xml version="1.0"?>
<svg width="240.865" height="31.952" xmlns="http://www.w3.org/2000/svg" preserveAspectRatio="xMidYMid meet">

 <g>
  <title>background</title>
  <rect fill="none" id="canvas_background" height="33.952" width="242.865" y="-1" x="-1"/>
 </g>
 <g>
  <title>Layer 1</title>
  <rect fill=" none" height="31.952" width="169.850998" y="0" x="0" id="svgEditorBackground"/>
  <g stroke="null" id="svg_1">
   <g stroke="null" id="svg_2">
    <path stroke="null" id="svg_3" d="m240.361282,29.2106c-0.000015,0.93638 -2.575623,2.741381 -5.723404,2.741381l-221.142385,0c-3.147781,0 -5.723369,-1.805 -5.723369,-4.011l0,-16.978001c0,-2.206 2.575587,-4.011 5.723369,-4.011l221.142385,0c3.147766,0 5.723389,1.805 5.723389,4.011l0,16.978001l0.000015,1.269619z" fill="#A7A8AC"/>
   </g>
   <g stroke="null" id="svg_4">
    <path stroke="null" id="svg_5" d="m8.490228,28c-3.913951,0 -7.098374,-2.247999 -7.098374,-5.011l0,-16.978c0,-2.763 3.184423,-5.011 7.098374,-5.011l219.536796,0c3.912506,0 7.096924,2.248 7.096924,5.011l0,16.979c0,2.763 -3.184418,5.011 -7.098358,5.011l-219.535361,0l0,-0.000999z" fill="#9C3793"/>
    <path stroke="null" id="svg_6" d="m228.559113,2.200966c3.127701,0 5.686859,1.805 5.686859,4.011l0,16.979c0,2.205999 -2.559158,4.011 -5.686859,4.011l-219.730611,0c-3.127707,-0.000999 -5.686869,-1.806 -5.686869,-4.011999l0,-16.978c0,-2.206 2.559161,-4.011 5.686869,-4.011l219.730611,0m0,-2l-219.730611,0c-4.700067,0 -8.522505,2.696 -8.522505,6.011l0,16.979c0,3.314001 3.822438,6.01 8.522505,6.01l219.732045,0c4.698654,0 8.522491,-2.695999 8.522491,-6.011l0,-16.978c-0.001419,-3.315 -3.823868,-6.011 -8.523926,-6.011l0,0z" fill="#FFFFFF"/>
   </g>
   <g stroke="null" id="svg_7">
    <text stroke="null" id="svg_8" font-size="12" font-family="'Glegoo-Bold'" fill="#FFFFFF" transform="matrix(1.0859513072476388,0,0,1,14.032750565649003,18.8467) "/>
   </g>
  </g>
 </g>
</svg>