<?xml version="1.0"?>
<svg width="353" height="71.482" xmlns="http://www.w3.org/2000/svg">

 <g>
  <title>background</title>
  <rect fill="none" id="canvas_background" height="73.482" width="355" y="-1" x="-1"/>
 </g>
 <g>
  <title>Layer 1</title>
  <g stroke="null" id="svg_1">
   <g stroke="null" id="svg_2">
    <path stroke="null" id="svg_3" d="m351.247986,62.243999c0,5.080997 -6.509735,9.238003 -14.468262,9.238003l-299.994293,0c-7.958561,0 -14.468258,-4.157005 -14.468258,-9.238003l0,-38.525c0,-5.080999 6.511263,-9.237 14.468258,-9.237l299.992737,0c7.958527,0 14.468262,4.157 14.468262,9.237l0,38.525l0.001556,0z" fill="#A7A8AC"/>
   </g>
   <g stroke="null" id="svg_4">
    <g stroke="null" id="svg_5">
     <path stroke="null" id="svg_6" d="m19.167269,61.5c-9.272717,0 -16.817763,-4.817001 -16.817763,-10.737l0,-38.526c0,-5.920001 7.545046,-10.737 16.817763,-10.737l299.992704,0c9.274292,0 16.81778,4.817 16.81778,10.737l0,38.526c0,5.919998 -7.543488,10.737 -16.81778,10.737l-299.992704,0z" fill="#9C3793"/>
     <path stroke="null" id="svg_7" d="m319.161591,3c7.958527,0 14.468231,4.157 14.468231,9.237l0,38.526c0,5.079998 -6.509705,9.237 -14.468231,9.237l-299.994322,0c-7.956993,0 -14.468257,-4.157001 -14.468257,-9.237l0,-38.526c0,-5.08 6.511264,-9.237 14.468257,-9.237l299.994322,0m0,-3l-299.994322,0c-10.568078,0 -19.167269,5.49 -19.167269,12.237l0,38.526c0,6.746998 8.599191,12.237 19.167269,12.237l299.992704,0c10.571259,0 19.168854,-5.490002 19.168854,-12.237l0,-38.526c0,-6.747001 -8.597595,-12.237 -19.167236,-12.237l0,0z" fill="#FFFFFF"/>
    </g>
    <g stroke="null" id="svg_8">
     <text stroke="null" id="svg_9" font-size="28" font-family="'Glegoo-Bold'" fill="#FFFFFF" transform="matrix(1.5663372033432097,0,0,1,76.54016387740828,41.5747) "/>
    </g>
   </g>
  </g>
 </g>
</svg>