<?xml version="1.0" encoding="utf-8"?>
<!-- Generator: Adobe Illustrator 16.0.0, SVG Export Plug-In . SVG Version: 6.00 Build 0)  -->
<!DOCTYPE svg PUBLIC "-//W3C//DTD SVG 1.1//EN" "http://www.w3.org/Graphics/SVG/1.1/DTD/svg11.dtd">
<svg version="1.1" id="Layer_1" xmlns="http://www.w3.org/2000/svg" xmlns:xlink="http://www.w3.org/1999/xlink" x="0px" y="0px"
	 width="52.852px" height="31.952px" viewBox="0 0 52.852 31.952" enable-background="new 0 0 52.852 31.952" xml:space="preserve">
<g>
	<g>
		<g>
			<path fill="#A7A8AC" d="M52.852,27.966c0,2.192-1.794,3.986-3.986,3.986H10.838c-2.192,0-3.986-1.794-3.986-3.986V10.938
				c0-2.192,1.794-3.986,3.986-3.986h38.027c2.192,0,3.986,1.794,3.986,3.986V27.966z"/>
		</g>
		<g>
			<path fill="#9C3793" d="M5.987,28C3.237,28,1,25.763,1,23.013V5.987C1,3.237,3.237,1,5.987,1h38.026C46.763,1,49,3.237,49,5.987
				v17.026C49,25.763,46.763,28,44.013,28H5.987z"/>
			<g>
				<path fill="#FFFFFF" d="M44.013,2C46.206,2,48,3.794,48,5.987v17.026C48,25.206,46.206,27,44.013,27H5.987
					C3.794,27,2,25.206,2,23.013V5.987C2,3.794,3.794,2,5.987,2H44.013 M44.013,0H5.987C2.686,0,0,2.686,0,5.987v17.026
					C0,26.314,2.686,29,5.987,29h38.026C47.314,29,50,26.314,50,23.013V5.987C50,2.686,47.314,0,44.013,0L44.013,0z"/>
			</g>
		</g>
	</g>
	<g>
		<text transform="matrix(1 0 0 1 9.0137 18.8467)" fill="#FFFFFF" font-family="'Glegoo-Bold'" font-size="12">Undo</text>
	</g>
</g>
</svg>
