<?xml version="1.0" encoding="utf-8"?>
<!-- Generator: Adobe Illustrator 16.0.0, SVG Export Plug-In . SVG Version: 6.00 Build 0)  -->
<!DOCTYPE svg PUBLIC "-//W3C//DTD SVG 1.1//EN" "http://www.w3.org/Graphics/SVG/1.1/DTD/svg11.dtd">
<svg version="1.1" id="Layer_1" xmlns="http://www.w3.org/2000/svg" xmlns:xlink="http://www.w3.org/1999/xlink" x="0px" y="0px"
	 width="102.85px" height="31.953px" viewBox="0 0 102.85 31.953" enable-background="new 0 0 102.85 31.953" xml:space="preserve">
<g>
	<g>
		<path fill="#A7A8AC" d="M102.85,27.943c0,2.205-1.804,4.009-4.008,4.009H10.858c-2.205,0-4.008-1.804-4.008-4.009V10.96
			c0-2.205,1.804-4.008,4.008-4.008h87.984c2.204,0,4.008,1.804,4.008,4.008V27.943z"/>
	</g>
	<g>
		<path fill="#BE1E2D" d="M6.008,28.001C3.247,28.001,1,25.755,1,22.993V6.008C1,3.247,3.247,1,6.008,1h87.983
			C96.753,1,99,3.247,99,6.008v16.984c0,2.762-2.247,5.008-5.009,5.008H6.008z"/>
		<g>
			<path fill="#FFFFFF" d="M93.991,2C96.196,2,98,3.804,98,6.008v16.984c0,2.205-1.804,4.008-4.009,4.008H6.008
				C3.804,27.001,2,25.197,2,22.993V6.008C2,3.804,3.804,2,6.008,2H93.991 M93.991,0H6.008C2.695,0,0,2.695,0,6.008v16.984
				c0,3.313,2.695,6.008,6.008,6.008h87.983c3.313,0,6.009-2.695,6.009-6.008V6.008C100,2.695,97.305,0,93.991,0L93.991,0z"/>
		</g>
	</g>
	<g>
		<text transform="matrix(1 0 0 1 10.9463 18.8467)" fill="#FFFFFF" font-family="'Glegoo-Bold'" font-size="12">I can’t read it</text>
	</g>
</g>
</svg>
