<?xml version="1.0" encoding="utf-8"?>
<!-- Generator: Adobe Illustrator 16.0.0, SVG Export Plug-In . SVG Version: 6.00 Build 0)  -->
<!DOCTYPE svg PUBLIC "-//W3C//DTD SVG 1.1//EN" "http://www.w3.org/Graphics/SVG/1.1/DTD/svg11.dtd">
<svg version="1.1" id="Layer_1" xmlns="http://www.w3.org/2000/svg" xmlns:xlink="http://www.w3.org/1999/xlink" x="0px" y="0px"
	 width="169.851px" height="31.952px" viewBox="0 0 169.851 31.952" enable-background="new 0 0 169.851 31.952"
	 xml:space="preserve">
<g>
	<g>
		<path fill="#A7A8AC" d="M169.85,27.941c0,2.206-1.805,4.011-4.011,4.011H10.86c-2.206,0-4.011-1.805-4.011-4.011V10.963
			c0-2.206,1.805-4.011,4.011-4.011h154.979c2.206,0,4.011,1.805,4.011,4.011V27.941z"/>
	</g>
	<g>
		<path fill="#9C3793" d="M6.011,28C3.248,28,1,25.752,1,22.989V6.011C1,3.248,3.248,1,6.011,1h154.979
			C163.752,1,166,3.248,166,6.011v16.979c0,2.763-2.248,5.011-5.011,5.011H6.011z"/>
		<path fill="#FFFFFF" d="M160.989,2C163.195,2,165,3.805,165,6.011v16.979c0,2.206-1.805,4.011-4.011,4.011H6.011
			C3.805,27,2,25.195,2,22.989V6.011C2,3.805,3.805,2,6.011,2H160.989 M160.989,0H6.011C2.696,0,0,2.696,0,6.011v16.979
			C0,26.304,2.696,29,6.011,29h154.979c3.314,0,6.011-2.696,6.011-6.011V6.011C167,2.696,164.304,0,160.989,0L160.989,0z"/>
	</g>
	<g>
		<text transform="matrix(1 0 0 1 12.9463 18.8467)" fill="#FFFFFF" font-family="'Glegoo-Bold'" font-size="12">Select another category</text>
	</g>
</g>
</svg>
