<?xml version="1.0" encoding="utf-8"?>
<!-- Generator: Adobe Illustrator 16.0.0, SVG Export Plug-In . SVG Version: 6.00 Build 0)  -->
<!DOCTYPE svg PUBLIC "-//W3C//DTD SVG 1.1//EN" "http://www.w3.org/Graphics/SVG/1.1/DTD/svg11.dtd">
<svg version="1.1" id="Layer_1" xmlns="http://www.w3.org/2000/svg" xmlns:xlink="http://www.w3.org/1999/xlink" x="0px" y="0px"
	 width="36.007px" height="37px" viewBox="0 0 36.007 37" enable-background="new 0 0 36.007 37" xml:space="preserve">
<g>
	<circle fill="#A7A8AC" cx="19.521" cy="20.514" r="16.486"/>
	<g>
		<path fill="#9C3793" d="M17.485,33.972c-9.091,0-16.487-7.396-16.487-16.485c0-9.09,7.396-16.487,16.487-16.487
			c9.09,0,16.485,7.397,16.485,16.487C33.971,26.576,26.575,33.972,17.485,33.972z"/>
		<path fill="#FFFFFF" d="M17.485,1.998c8.539,0,15.486,6.949,15.486,15.488c0,8.539-6.947,15.487-15.486,15.487
			c-8.54,0-15.488-6.948-15.488-15.487C1.998,8.947,8.945,1.998,17.485,1.998 M17.485,0C7.829,0-0.001,7.83-0.001,17.486
			s7.83,17.485,17.486,17.485S34.97,27.143,34.97,17.486S27.142,0,17.485,0L17.485,0z"/>
	</g>
	<polyline fill="none" stroke="#FFFFFF" stroke-width="1.8861" stroke-miterlimit="10" points="20.063,24.703 12.774,17.385 
		20.063,10.068 	"/>
</g>
</svg>
