<?xml version="1.0" encoding="utf-8"?>
<!-- Generator: Adobe Illustrator 16.0.0, SVG Export Plug-In . SVG Version: 6.00 Build 0)  -->
<!DOCTYPE svg PUBLIC "-//W3C//DTD SVG 1.1//EN" "http://www.w3.org/Graphics/SVG/1.1/DTD/svg11.dtd">
<svg version="1.1" id="Layer_1" xmlns="http://www.w3.org/2000/svg" xmlns:xlink="http://www.w3.org/1999/xlink" x="0px" y="0px"
	 width="36.008px" height="37px" viewBox="0 0 36.008 37" enable-background="new 0 0 36.008 37" xml:space="preserve">
<g>
	<rect fill="none" width="36.008" height="37"/>
	<g>
		<path fill="#9C3793" d="M18.523,36.001c-9.091,0-16.487-7.396-16.487-16.486S9.433,3.027,18.523,3.027
			c9.09,0,16.485,7.396,16.485,16.487S27.613,36.001,18.523,36.001z"/>
		<path fill="#FFFFFF" d="M18.523,4.026c8.539,0,15.486,6.948,15.486,15.488c0,8.539-6.947,15.487-15.486,15.487
			c-8.54,0-15.488-6.948-15.488-15.487C3.036,10.975,9.983,4.026,18.523,4.026 M18.523,2.028c-9.656,0-17.486,7.83-17.486,17.486
			S8.867,37,18.523,37s17.484-7.829,17.484-17.485S28.18,2.028,18.523,2.028L18.523,2.028z"/>
	</g>
	<polyline fill="none" stroke="#FFFFFF" stroke-width="1.8861" stroke-miterlimit="10" points="21.102,26.732 13.813,19.414 
		21.102,12.098 	"/>
</g>
</svg>
