<?xml version="1.0" encoding="utf-8"?>
<!-- Generator: Adobe Illustrator 16.0.0, SVG Export Plug-In . SVG Version: 6.00 Build 0)  -->
<!DOCTYPE svg PUBLIC "-//W3C//DTD SVG 1.1//EN" "http://www.w3.org/Graphics/SVG/1.1/DTD/svg11.dtd">
<svg version="1.1" id="Layer_1" xmlns="http://www.w3.org/2000/svg" xmlns:xlink="http://www.w3.org/1999/xlink" x="0px" y="0px"
	 width="36.008px" height="37px" viewBox="0 0 36.008 37" enable-background="new 0 0 36.008 37" xml:space="preserve">
<g>
	<g>
		<path fill="#9C3793" d="M17.486,33.973c-9.091,0-16.487-7.396-16.487-16.487S8.396,1,17.486,1c9.09,0,16.485,7.396,16.485,16.487
			S26.576,33.973,17.486,33.973z"/>
		<path fill="#FFFFFF" d="M17.486,1.998c8.539,0,15.486,6.948,15.486,15.488s-6.947,15.487-15.486,15.487
			c-8.54,0-15.488-6.947-15.488-15.487S8.946,1.998,17.486,1.998 M17.486,0C7.83,0,0,7.83,0,17.486s7.83,17.485,17.486,17.485
			s17.484-7.829,17.484-17.485S27.143,0,17.486,0L17.486,0z"/>
	</g>
	<path fill="#A7A8AC" d="M34.58,13.825c0.252,1.182,0.391,2.404,0.391,3.661c0,9.656-7.828,17.485-17.484,17.485
		c-3.645,0-7.025-1.118-9.828-3.024c3,3.11,7.201,5.053,11.861,5.053c9.107,0,16.488-7.381,16.488-16.486
		C36.008,18.131,35.49,15.871,34.58,13.825z"/>
	<polyline fill="none" stroke="#FFFFFF" stroke-width="1.8861" stroke-miterlimit="10" points="13.775,10.069 21.064,17.388 
		13.775,24.704 	"/>
</g>
</svg>
