<?xml version="1.0" encoding="utf-8"?>
<!-- Generator: Adobe Illustrator 16.0.0, SVG Export Plug-In . SVG Version: 6.00 Build 0)  -->
<!DOCTYPE svg PUBLIC "-//W3C//DTD SVG 1.1//EN" "http://www.w3.org/Graphics/SVG/1.1/DTD/svg11.dtd">
<svg version="1.1" id="Layer_1" xmlns="http://www.w3.org/2000/svg" xmlns:xlink="http://www.w3.org/1999/xlink" x="0px" y="0px"
	 width="27.564px" height="383.995px" viewBox="0 0 27.564 383.995" enable-background="new 0 0 27.564 383.995"
	 xml:space="preserve">
<g>
	<g>
		<linearGradient id="SVGID_1_" gradientUnits="userSpaceOnUse" x1="13.7822" y1="290.417" x2="13.7822" y2="224.8916">
			<stop  offset="0" style="stop-color:#FFFFFF;stop-opacity:0"/>
			<stop  offset="0.1044" style="stop-color:#FAFAFA;stop-opacity:0.1044"/>
			<stop  offset="0.2281" style="stop-color:#ECECEC;stop-opacity:0.2281"/>
			<stop  offset="0.3615" style="stop-color:#D4D4D4;stop-opacity:0.3615"/>
			<stop  offset="0.5019" style="stop-color:#B2B2B2;stop-opacity:0.5019"/>
			<stop  offset="0.6477" style="stop-color:#878787;stop-opacity:0.6477"/>
			<stop  offset="0.798" style="stop-color:#535353;stop-opacity:0.798"/>
			<stop  offset="0.9494" style="stop-color:#161616;stop-opacity:0.9494"/>
			<stop  offset="1" style="stop-color:#000000"/>
		</linearGradient>
		<path fill="url(#SVGID_1_)" d="M25.564,287.992c0,1.334-1.091,2.425-2.425,2.425H4.425c-1.333,0-2.425-1.091-2.425-2.425v-60.676
			c0-1.334,1.091-2.425,2.425-2.425H23.14c1.333,0,2.425,1.091,2.425,2.425V287.992z"/>
	</g>
	<g>
		<path fill="#9C3793" d="M25.564,238.147c0,1.627-1.318,2.945-2.945,2.945H4.945c-1.627,0-2.945-1.318-2.945-2.945v-63.824
			c0-1.627,1.318-2.945,2.945-2.945h17.674c1.627,0,2.945,1.318,2.945,2.945V238.147z"/>
	</g>
	<g opacity="0.5">
		<path fill="#9C3793" d="M25.564,238.147c0,1.627-1.318,2.945-2.945,2.945H4.945c-1.627,0-2.945-1.318-2.945-2.945v-63.824
			c0-1.627,1.318-2.945,2.945-2.945h17.674c1.627,0,2.945,1.318,2.945,2.945V238.147z"/>
	</g>
	<g>
		<path fill="#FFFFFF" d="M22.619,171.378c1.627,0,2.945,1.318,2.945,2.945v63.824c0,1.627-1.318,2.945-2.945,2.945H4.945
			c-1.627,0-2.945-1.318-2.945-2.945v-63.824c0-1.627,1.318-2.945,2.945-2.945H22.619 M22.619,169.378H4.945
			c-2.727,0-4.945,2.219-4.945,4.945v63.824c0,2.727,2.218,4.945,4.945,4.945h17.674c2.727,0,4.945-2.219,4.945-4.945v-63.824
			C27.564,171.597,25.346,169.378,22.619,169.378L22.619,169.378z"/>
	</g>
	<g opacity="0.5">
		<path fill="#FFFFFF" d="M22.619,2c1.62,0,2.946,1.325,2.946,2.945V379.05c0,1.62-1.326,2.945-2.946,2.945H4.946
			c-1.62,0-2.946-1.325-2.946-2.945V4.945C2,3.325,3.326,2,4.946,2H22.619 M22.619,0H4.946C2.219,0,0,2.219,0,4.945V379.05
			c0,2.727,2.219,4.945,4.946,4.945h17.673c2.727,0,4.946-2.219,4.946-4.945V4.945C27.564,2.219,25.346,0,22.619,0L22.619,0z"/>
	</g>
	<g>
		
			<line opacity="0.5" fill="none" stroke="#FFFFFF" stroke-width="2" stroke-linecap="round" stroke-miterlimit="10" x1="5.914" y1="198.901" x2="21.379" y2="198.901"/>
		
			<line opacity="0.5" fill="none" stroke="#FFFFFF" stroke-width="2" stroke-linecap="round" stroke-miterlimit="10" x1="5.914" y1="206.681" x2="21.379" y2="206.681"/>
		
			<line opacity="0.5" fill="none" stroke="#FFFFFF" stroke-width="2" stroke-linecap="round" stroke-miterlimit="10" x1="5.914" y1="214.458" x2="21.379" y2="214.458"/>
	</g>
</g>
</svg>
