<?xml version="1.0" encoding="utf-8"?>
<!-- Generator: Adobe Illustrator 16.0.0, SVG Export Plug-In . SVG Version: 6.00 Build 0)  -->
<!DOCTYPE svg PUBLIC "-//W3C//DTD SVG 1.1//EN" "http://www.w3.org/Graphics/SVG/1.1/DTD/svg11.dtd">
<svg version="1.1" id="Layer_1" xmlns="http://www.w3.org/2000/svg" xmlns:xlink="http://www.w3.org/1999/xlink" x="0px" y="0px"
	 width="14.857px" height="14.858px" viewBox="0 0 14.857 14.858" enable-background="new 0 0 14.857 14.858" xml:space="preserve">
<g>
	<path fill="#FFFFFF" d="M7.429,14.27c-3.771,0-6.839-3.069-6.839-6.841c0-3.771,3.068-6.84,6.839-6.84s6.839,3.068,6.839,6.84
		C14.268,11.201,11.2,14.27,7.429,14.27z"/>
	<path fill="#6D6E70" d="M7.429,1.179c3.453,0,6.25,2.799,6.25,6.25c0,3.452-2.797,6.251-6.25,6.251c-3.451,0-6.25-2.799-6.25-6.251
		C1.179,3.978,3.978,1.179,7.429,1.179 M7.429,0C3.333,0,0,3.333,0,7.429c0,4.097,3.333,7.43,7.429,7.43s7.429-3.333,7.429-7.43
		C14.857,3.333,11.525,0,7.429,0L7.429,0z"/>
</g>
</svg>
